<svg preserveAspectRatio="none" width="100%" height="100%" overflow="visible" style="display: block;" viewBox="0 0 5.94969 3.53807" fill="none" xmlns="http://www.w3.org/2000/svg">
<path id="Vector" fill-rule="evenodd" clip-rule="evenodd" d="M0.162758 0.17713C0.267107 0.0729106 0.408558 0.0143718 0.556038 0.0143718C0.703518 0.0143718 0.844968 0.0729106 0.949318 0.17713L2.96766 2.19547L4.986 0.17713C5.03695 0.122452 5.09839 0.0785958 5.16666 0.0481782C5.23492 0.0177607 5.30862 0.00140505 5.38334 8.66124e-05C5.45807 -0.00123183 5.53229 0.012514 5.60159 0.0405043C5.67089 0.0684947 5.73384 0.110156 5.78668 0.163003C5.83953 0.21585 5.88119 0.2788 5.90918 0.348097C5.93717 0.417395 5.95092 0.49162 5.9496 0.566345C5.94828 0.64107 5.93193 0.714765 5.90151 0.783031C5.87109 0.851298 5.82723 0.91274 5.77256 0.963689L3.36094 3.37531C3.25659 3.47953 3.11514 3.53807 2.96766 3.53807C2.82018 3.53807 2.67873 3.47953 2.57438 3.37531L0.162758 0.963689C0.0585388 0.85934 0 0.71789 0 0.57041C0 0.422929 0.0585388 0.281479 0.162758 0.17713Z" fill="var(--fill-0, white)" fill-opacity="0.4"/>
</svg>
