<svg preserveAspectRatio="none" width="100%" height="100%" overflow="visible" style="display: block;" viewBox="0 0 5.80096 8.70256" fill="none" xmlns="http://www.w3.org/2000/svg">
<g id="Frame 2">
<path id="Vector" fill-rule="evenodd" clip-rule="evenodd" d="M1.65759 4.14393C1.73038 4.14393 1.80087 4.16947 1.85675 4.21612C1.91264 4.26277 1.95038 4.32755 1.96338 4.39918L2.0678 4.97431C2.08666 5.07793 2.13666 5.17334 2.21113 5.24782C2.28561 5.32229 2.38102 5.37229 2.48464 5.39115L3.05977 5.49557C3.13142 5.50854 3.19625 5.54626 3.24292 5.60215C3.2896 5.65804 3.31517 5.72855 3.31517 5.80136C3.31517 5.87418 3.2896 5.94469 3.24292 6.00058C3.19625 6.05646 3.13142 6.09419 3.05977 6.10716L2.48464 6.21158C2.38102 6.23044 2.28561 6.28044 2.21113 6.35491C2.13666 6.42939 2.08666 6.5248 2.0678 6.62842L1.96338 7.20355C1.95041 7.2752 1.91269 7.34002 1.8568 7.3867C1.80091 7.43338 1.7304 7.45895 1.65759 7.45895C1.58477 7.45895 1.51426 7.43338 1.45837 7.3867C1.40249 7.34002 1.36476 7.2752 1.35179 7.20355L1.24737 6.62842C1.22851 6.5248 1.17851 6.42939 1.10404 6.35491C1.02956 6.28044 0.934151 6.23044 0.830528 6.21158L0.255399 6.10716C0.183747 6.09419 0.118926 6.05646 0.072248 6.00058C0.0255701 5.94469 0 5.87418 0 5.80136C0 5.72855 0.0255701 5.65804 0.072248 5.60215C0.118926 5.54626 0.183747 5.50854 0.255399 5.49557L0.830528 5.39115C0.934151 5.37229 1.02956 5.32229 1.10404 5.24782C1.17851 5.17334 1.22851 5.07793 1.24737 4.97431L1.35179 4.39918C1.3648 4.32755 1.40253 4.26277 1.45842 4.21612C1.5143 4.16947 1.58479 4.14393 1.65759 4.14393ZM4.55809 2.90086C4.62562 2.90087 4.6913 2.92288 4.7452 2.96355C4.79911 3.00422 4.8383 3.06134 4.85684 3.12627L4.93764 3.40886C4.98654 3.58082 5.1212 3.71549 5.29316 3.76438L5.57575 3.84518C5.64064 3.86377 5.69771 3.90298 5.73834 3.95688C5.77896 4.01078 5.80094 4.07644 5.80094 4.14393C5.80094 4.21143 5.77896 4.27709 5.73834 4.33099C5.69771 4.38489 5.64064 4.4241 5.57575 4.44269L5.29316 4.52348C5.20859 4.54768 5.13157 4.59301 5.06937 4.65521C5.00717 4.71741 4.96184 4.79443 4.93764 4.879L4.85684 5.1616C4.83825 5.22648 4.79905 5.28355 4.74515 5.32418C4.69125 5.36481 4.62559 5.38678 4.55809 5.38678C4.49059 5.38678 4.42493 5.36481 4.37103 5.32418C4.31713 5.28355 4.27793 5.22648 4.25934 5.1616L4.17854 4.879C4.15434 4.79443 4.10901 4.71741 4.04681 4.65521C3.98461 4.59301 3.90759 4.54768 3.82302 4.52348L3.54043 4.44269C3.47554 4.4241 3.41847 4.38489 3.37784 4.33099C3.33722 4.27709 3.31524 4.21143 3.31524 4.14393C3.31524 4.07644 3.33722 4.01078 3.37784 3.95688C3.41847 3.90298 3.47554 3.86377 3.54043 3.84518L3.82302 3.76438C3.90759 3.74019 3.98461 3.69485 4.04681 3.63265C4.10901 3.57045 4.15434 3.49344 4.17854 3.40886L4.25934 3.12627C4.27789 3.06134 4.31708 3.00422 4.37098 2.96355C4.42488 2.92288 4.49057 2.90087 4.55809 2.90086ZM3.72937 7.04444C3.7987 7.0444 3.86605 7.06754 3.92071 7.11019C3.97537 7.15284 4.0142 7.21254 4.03103 7.27979C4.04867 7.35028 4.08513 7.41465 4.1365 7.46602C4.18788 7.5174 4.25225 7.55386 4.32274 7.5715C4.39012 7.58819 4.44998 7.62696 4.49276 7.68164C4.53554 7.73631 4.55879 7.80373 4.55879 7.87315C4.55879 7.94257 4.53554 8.01 4.49276 8.06467C4.44998 8.11934 4.39012 8.15811 4.32274 8.17481C4.25225 8.19245 4.18788 8.2289 4.1365 8.28028C4.08513 8.33166 4.04867 8.39603 4.03103 8.46651C4.01434 8.5339 3.97556 8.59375 3.92089 8.63654C3.86622 8.67932 3.7988 8.70256 3.72937 8.70256C3.65995 8.70256 3.59253 8.67932 3.53786 8.63654C3.48319 8.59375 3.44441 8.5339 3.42772 8.46651C3.41008 8.39603 3.37362 8.33166 3.32225 8.28028C3.27087 8.2289 3.2065 8.19245 3.13601 8.17481C3.06863 8.15811 3.00877 8.11934 2.96599 8.06467C2.92321 8.01 2.89996 7.94257 2.89996 7.87315C2.89996 7.80373 2.92321 7.73631 2.96599 7.68164C3.00877 7.62696 3.06863 7.58819 3.13601 7.5715C3.2065 7.55386 3.27087 7.5174 3.32225 7.46602C3.37362 7.41465 3.41008 7.35028 3.42772 7.27979C3.44455 7.21254 3.48338 7.15284 3.53804 7.11019C3.5927 7.06754 3.66005 7.0444 3.72937 7.04444Z" fill="var(--fill-0, #16A34A)"/>
</g>
</svg>
