<svg preserveAspectRatio="none" width="100%" height="100%" overflow="visible" style="display: block;" viewBox="0 0 16 16" fill="none" xmlns="http://www.w3.org/2000/svg">
<g id="SVG">
<path id="Vector" d="M10.6667 4L5.05733 9.724C4.80723 9.9741 4.66673 10.3133 4.66673 10.667C4.66673 11.0207 4.80723 11.3599 5.05733 11.61C5.30743 11.8601 5.64664 12.0006 6.00033 12.0006C6.35403 12.0006 6.69323 11.8601 6.94333 11.61L12.5527 5.886C13.0528 5.38589 13.3337 4.7076 13.3337 4.00033C13.3337 3.29307 13.0528 2.61478 12.5527 2.11467C12.0526 1.61456 11.3743 1.3336 10.667 1.3336C9.95974 1.3336 9.28144 1.61456 8.78133 2.11467L3.19533 7.81533C2.81893 8.18565 2.51958 8.62683 2.31453 9.11342C2.10949 9.60002 2.00282 10.1224 2.00067 10.6504C1.99852 11.1784 2.10093 11.7017 2.30201 12.1899C2.50308 12.6782 2.79883 13.1218 3.17221 13.4951C3.54558 13.8685 3.98918 14.1643 4.47743 14.3653C4.96567 14.5664 5.4889 14.6688 6.01692 14.6667C6.54494 14.6645 7.06732 14.5578 7.55391 14.3528C8.0405 14.1478 8.48168 13.8484 8.852 13.472L14.438 7.77133" stroke="var(--stroke-0, white)" stroke-opacity="0.4" stroke-width="1.33333" stroke-linecap="round" stroke-linejoin="round"/>
</g>
</svg>
