<svg width="20" height="20" viewBox="0 0 20 20" fill="none" xmlns="http://www.w3.org/2000/svg">
<path d="M18.7229 8.725C18.7229 13.5437 14.8166 17.45 9.99795 17.45C5.17926 17.45 1.27295 13.5437 1.27295 8.725C1.27295 3.90632 5.17926 0 9.99795 0C14.8166 0 18.7229 3.90632 18.7229 8.725ZM3.01795 8.725C3.01795 12.5799 6.143 15.705 9.99795 15.705C13.8529 15.705 16.978 12.5799 16.978 8.725C16.978 4.87005 13.8529 1.745 9.99795 1.745C6.143 1.745 3.01795 4.87005 3.01795 8.725Z" fill="#64748B" fill-opacity="0.4"/>
<path d="M3.82837 17.3778C4.06959 17.0561 4.51725 16.9734 4.85747 17.1876C8.00028 19.1664 11.9997 19.1664 15.1425 17.1876C15.4827 16.9734 15.9304 17.0561 16.1716 17.3778L16.5803 17.9226C16.8626 18.2991 16.9839 18.7724 16.9173 19.2382C16.8549 19.6753 16.4805 20 16.039 20H3.96097C3.51944 20 3.1451 19.6753 3.08266 19.2382C3.01611 18.7724 3.13735 18.2991 3.41972 17.9226L3.82837 17.3778Z" fill="#64748B" fill-opacity="0.4"/>
<path d="M3.90103 8.41532C5.50152 7.73659 7.4848 7.64989 9.57445 9.14899C11.8116 10.7539 14.0117 10.7577 15.9512 10.0961C15.3283 12.8075 12.9004 14.8297 9.99998 14.8297C6.62755 14.8297 3.8936 12.0959 3.89355 8.72346C3.89355 8.62016 3.89596 8.51737 3.90103 8.41532Z" fill="#64748B" fill-opacity="0.4"/>
</svg>
