<svg width="20" height="20" viewBox="0 0 20 20" fill="none" xmlns="http://www.w3.org/2000/svg">
<path d="M18.7234 8.72341C18.7234 13.5412 14.8178 17.4468 10 17.4468C5.18221 17.4468 1.27661 13.5412 1.27661 8.72341C1.27661 3.9056 5.18221 0 10 0C14.8178 0 18.7234 3.9056 18.7234 8.72341ZM3.02129 8.72341C3.02129 12.5777 6.14577 15.7021 10 15.7021C13.8543 15.7021 16.9787 12.5777 16.9787 8.72341C16.9787 4.86916 13.8543 1.74468 10 1.74468C6.14577 1.74468 3.02129 4.86916 3.02129 8.72341Z" fill="#DC2626" fill-opacity="0.266667"/>
<path d="M9.99795 16.5775C9.99795 17.0594 9.60635 17.4545 9.12689 17.4064C8.05202 17.2986 7.0039 16.9918 6.03688 16.499C4.81006 15.8739 3.74859 14.9674 2.93928 13.8534C2.12996 12.7395 1.59576 11.4498 1.38037 10.0899C1.21059 9.01794 1.24268 7.92631 1.47226 6.87072C1.57467 6.39986 2.07149 6.14954 2.52978 6.29844V6.29844C2.98806 6.44735 3.23306 6.93927 3.14245 7.41254C2.99101 8.20358 2.97721 9.01709 3.10388 9.81691C3.2762 10.9049 3.70356 11.9366 4.35101 12.8277C4.99847 13.7189 5.84764 14.4441 6.8291 14.9442C7.55062 15.3119 8.32859 15.5501 9.12771 15.6505C9.60582 15.7106 9.99795 16.0956 9.99795 16.5775V16.5775Z" fill="#DC2626"/>
<path d="M3.82837 17.3778C4.06959 17.0561 4.51725 16.9734 4.85747 17.1876C8.00028 19.1664 11.9997 19.1664 15.1425 17.1876C15.4827 16.9734 15.9304 17.0561 16.1716 17.3778L16.5803 17.9226C16.8626 18.2991 16.9839 18.7724 16.9173 19.2382C16.8549 19.6753 16.4805 20 16.039 20H3.96097C3.51944 20 3.1451 19.6753 3.08266 19.2382C3.01611 18.7724 3.13735 18.2991 3.41972 17.9226L3.82837 17.3778Z" fill="#DC2626"/>
<path d="M3.90103 8.41532C5.50152 7.73659 7.4848 7.64989 9.57445 9.14899C11.8116 10.7539 14.0117 10.7577 15.9512 10.0961C15.3283 12.8075 12.9004 14.8297 9.99998 14.8297C6.62755 14.8297 3.8936 12.0959 3.89355 8.72346C3.89355 8.62016 3.89596 8.51737 3.90103 8.41532Z" fill="#DC2626"/>
</svg>
