<svg width="32" height="32" viewBox="0 0 32 32" fill="none" xmlns="http://www.w3.org/2000/svg">
<g clip-path="url(#clip0_2036_27)">
<path d="M24.8901 8.15523C25.4041 6.73321 24.0261 5.35521 22.6041 5.87047L5.22448 12.1559C3.79769 12.6724 3.62514 14.6192 4.93769 15.3796L10.4854 18.5913L15.4392 13.6375C15.6637 13.4207 15.9643 13.3008 16.2763 13.3035C16.5883 13.3062 16.8867 13.4313 17.1074 13.652C17.328 13.8726 17.4532 14.171 17.4559 14.4831C17.4586 14.7951 17.3386 15.0957 17.1219 15.3201L12.168 20.274L15.3809 25.8216C16.1401 27.1342 18.0869 26.9605 18.6034 25.5349L24.8901 8.15523Z" fill="#282E38"/>
</g>
<defs>
<clipPath id="clip0_2036_27">
<rect width="24" height="24" fill="white" transform="translate(4 4)"/>
</clipPath>
</defs>
</svg>
