<svg preserveAspectRatio="none" width="100%" height="100%" overflow="visible" style="display: block;" viewBox="0 0 5.80172 8.70256" fill="none" xmlns="http://www.w3.org/2000/svg">
<g id="Frame 2">
<path id="Star 2" d="M2.58442 3.12115C2.69312 2.8274 3.10859 2.8274 3.21728 3.12115L3.80197 4.70124C3.83614 4.79359 3.90895 4.8664 4.00131 4.90058L5.5814 5.48526C5.87514 5.59396 5.87514 6.00942 5.5814 6.11812L4.00131 6.70281C3.90895 6.73698 3.83614 6.80979 3.80197 6.90214L3.21728 8.48224C3.10859 8.77598 2.69312 8.77598 2.58442 8.48224L1.99974 6.90214C1.96556 6.80979 1.89275 6.73698 1.8004 6.70281L0.220308 6.11812C-0.0734354 6.00942 -0.0734361 5.59396 0.220307 5.48526L1.8004 4.90058C1.89275 4.8664 1.96556 4.79359 1.99974 4.70124L2.58442 3.12115Z" fill="var(--fill-0, #DC2626)"/>
</g>
</svg>
