<svg preserveAspectRatio="none" width="100%" height="100%" overflow="visible" style="display: block;" viewBox="0 0 5.80172 8.70259" fill="none" xmlns="http://www.w3.org/2000/svg">
<g id="Frame 2">
<path id="Star 2" d="M2.58442 3.12119C2.69312 2.82745 3.10859 2.82745 3.21728 3.12119L3.80197 4.70129C3.83614 4.79364 3.90895 4.86645 4.00131 4.90062L5.5814 5.48531C5.87514 5.59401 5.87514 6.00947 5.5814 6.11817L4.00131 6.70285C3.90895 6.73703 3.83614 6.80984 3.80197 6.90219L3.21728 8.48228C3.10859 8.77603 2.69312 8.77603 2.58442 8.48228L1.99974 6.90219C1.96556 6.80984 1.89275 6.73703 1.8004 6.70285L0.220308 6.11817C-0.0734354 6.00947 -0.0734361 5.59401 0.220307 5.48531L1.8004 4.90062C1.89275 4.86645 1.96556 4.79364 1.99974 4.70129L2.58442 3.12119Z" fill="var(--fill-0, #CA8A04)"/>
</g>
</svg>
