<svg preserveAspectRatio="none" width="100%" height="100%" overflow="visible" style="display: block;" viewBox="0 0 40 40" fill="none" xmlns="http://www.w3.org/2000/svg">
<g id="Frame" clip-path="url(#clip0_0_15)">
<path id="Vector" d="M40 20C40 8.9543 31.0457 0 20 0C8.9543 0 0 8.9543 0 20C0 31.0457 8.9543 40 20 40C31.0457 40 40 31.0457 40 20Z" fill="var(--fill-0, white)"/>
<path id="Vector_2" d="M20 0.8125C30.597 0.8125 39.1875 9.40304 39.1875 20C39.1875 30.597 30.597 39.1875 20 39.1875C9.40304 39.1875 0.8125 30.597 0.8125 20C0.8125 9.40304 9.40304 0.8125 20 0.8125Z" stroke="var(--stroke-0, black)" stroke-opacity="0.1"/>
<path id="Vector_3" fill-rule="evenodd" clip-rule="evenodd" d="M33.0588 12.14C32.9799 11.9509 32.8819 11.7704 32.7662 11.6013C32.5012 11.1969 32.1025 10.7006 31.66 10.2325V10.23C31.1862 9.75438 30.7038 9.3425 30.3119 9.07C30.1156 8.93563 29.9375 8.82875 29.79 8.77C29.7207 8.73932 29.6468 8.72031 29.5712 8.71375C29.5312 8.70908 29.4907 8.71327 29.4524 8.72601C29.4142 8.73875 29.3792 8.75975 29.35 8.7875L20.1781 17.7206C20.1286 17.7684 20.0625 17.795 19.9937 17.795C19.925 17.795 19.8589 17.7684 19.8094 17.7206L10.6375 8.7875C10.6074 8.76117 10.5723 8.74114 10.5343 8.72858C10.4963 8.71602 10.4561 8.71119 10.4162 8.71438C10.3475 8.71938 10.2706 8.73938 10.1975 8.77063C10.0494 8.82875 9.86937 8.93563 9.67562 9.07063C9.28437 9.3425 8.80062 9.75688 8.3275 10.23V10.2325C7.885 10.7006 7.48562 11.1969 7.22125 11.6013C7.08875 11.8019 6.98437 11.9875 6.92875 12.14C6.90143 12.2113 6.88357 12.2859 6.87562 12.3619C6.87208 12.4026 6.87727 12.4437 6.89085 12.4823C6.90443 12.5208 6.92609 12.5561 6.95437 12.5856L17.2019 22.5588C17.2471 22.6026 17.2831 22.6552 17.3076 22.7133C17.3321 22.7714 17.3446 22.8338 17.3444 22.8969L17.3344 35.0962C17.3344 35.1875 17.3875 35.2562 17.4337 35.2994C17.4819 35.345 17.5456 35.3831 17.6169 35.4162C17.7594 35.485 17.955 35.5488 18.1862 35.6019C18.655 35.7088 19.2925 35.7856 20 35.7856C20.7069 35.7856 21.3456 35.7088 21.8138 35.6019C22.045 35.5488 22.2406 35.485 22.3831 35.4162C22.4544 35.3831 22.5181 35.3425 22.5662 35.2994C22.596 35.2742 22.6201 35.2432 22.6373 35.2082C22.6544 35.1733 22.664 35.1351 22.6656 35.0962L22.6556 22.8969C22.6556 22.77 22.7063 22.6475 22.7981 22.5588L33.0456 12.5856C33.074 12.5561 33.0958 12.5209 33.1095 12.4823C33.1232 12.4437 33.1285 12.4027 33.125 12.3619C33.1185 12.2856 33.1004 12.2108 33.0713 12.14H33.0588Z" fill="url(#paint0_linear_0_15)"/>
</g>
<defs>
<linearGradient id="paint0_linear_0_15" x1="6.875" y1="22.7606" x2="32.8781" y2="20.5131" gradientUnits="userSpaceOnUse">
<stop offset="0.3" stop-color="#FF6A16"/>
<stop offset="0.543" stop-color="#FF3227"/>
<stop offset="0.89" stop-color="#FF66DD"/>
</linearGradient>
<clipPath id="clip0_0_15">
<rect width="40" height="40" fill="white"/>
</clipPath>
</defs>
</svg>
