<svg width="22" height="22" viewBox="0 0 22 22" fill="none" xmlns="http://www.w3.org/2000/svg">
<path d="M19.7229 9.725C19.7229 14.5437 15.8166 18.45 10.9979 18.45C6.17926 18.45 2.27295 14.5437 2.27295 9.725C2.27295 4.90632 6.17926 1 10.9979 1C15.8166 1 19.7229 4.90632 19.7229 9.725ZM4.01795 9.725C4.01795 13.5799 7.143 16.705 10.9979 16.705C14.8529 16.705 17.978 13.5799 17.978 9.725C17.978 5.87005 14.8529 2.745 10.9979 2.745C7.143 2.745 4.01795 5.87005 4.01795 9.725Z" fill="#64748B" fill-opacity="0.4"/>
<path d="M4.82849 18.3778C5.06971 18.0561 5.51738 17.9734 5.85759 18.1876C9.00041 20.1664 12.9998 20.1664 16.1426 18.1876C16.4829 17.9734 16.9305 18.0561 17.1717 18.3778L17.5804 18.9226C17.8628 19.2991 17.984 19.7724 17.9174 20.2382C17.855 20.6753 17.4807 21 17.0391 21H4.96109C4.51956 21 4.14522 20.6753 4.08278 20.2382C4.01623 19.7724 4.13747 19.2991 4.41984 18.9226L4.82849 18.3778Z" fill="#64748B"/>
<path d="M4.90103 9.41557C6.50152 8.73683 8.4848 8.65013 10.5744 10.1492C12.8116 11.7542 15.0117 11.7579 16.9512 11.0963C16.3283 13.8077 13.9004 15.8299 11 15.8299C7.62755 15.8299 4.8936 13.0961 4.89355 9.72371C4.89355 9.62041 4.89596 9.51761 4.90103 9.41557Z" fill="#64748B"/>
</svg>
