<svg width="48" height="48" viewBox="0 0 48 48" fill="none" xmlns="http://www.w3.org/2000/svg">
<rect width="48" height="48" rx="24" fill="#9CFB51"/>
<path d="M40.125 24C40.125 32.9056 32.9056 40.125 24 40.125C15.0944 40.125 7.875 32.9056 7.875 24C7.875 15.0944 15.0944 7.875 24 7.875C32.9056 7.875 40.125 15.0944 40.125 24ZM11.1 24C11.1 31.1245 16.8755 36.9 24 36.9C31.1245 36.9 36.9 31.1245 36.9 24C36.9 16.8755 31.1245 11.1 24 11.1C16.8755 11.1 11.1 16.8755 11.1 24Z" fill="#011417"/>
<path d="M12.7307 23.4276C15.689 22.1732 19.3549 22.013 23.2173 24.7835C27.3525 27.7496 31.4191 27.7566 35.0039 26.5338C33.8526 31.5449 29.365 35.2822 24.0038 35.2822C17.7703 35.2822 12.717 30.2298 12.7169 23.9971C12.7169 23.8062 12.7214 23.6162 12.7307 23.4276Z" fill="#011417"/>
</svg>
