<svg width="43" height="43" viewBox="0 0 43 43" fill="none" xmlns="http://www.w3.org/2000/svg">
<circle opacity="0.4" cx="21.2061" cy="21.2061" r="20.7061" stroke="#E8E7E7"/>
<path d="M20.9999 18.0209C20.2098 18.0209 19.452 18.3347 18.8933 18.8935C18.3346 19.4522 18.0208 20.2099 18.0208 21C18.0208 21.7902 18.3346 22.5479 18.8933 23.1066C19.452 23.6653 20.2098 23.9792 20.9999 23.9792C21.79 23.9792 22.5478 23.6653 23.1065 23.1066C23.6652 22.5479 23.9791 21.7902 23.9791 21C23.9791 20.2099 23.6652 19.4522 23.1065 18.8935C22.5478 18.3347 21.79 18.0209 20.9999 18.0209Z" fill="white"/>
<path fill-rule="evenodd" clip-rule="evenodd" d="M16.2058 12.8252C19.3922 12.4722 22.6078 12.4722 25.7942 12.8252C27.5349 13.0195 28.9383 14.3899 29.1427 16.1371C29.5203 19.368 29.5203 22.632 29.1427 25.8629C28.9383 27.6101 27.5349 28.9805 25.7951 29.1757C22.6084 29.5288 19.3925 29.5288 16.2058 29.1757C14.4651 28.9805 13.0617 27.6101 12.8572 25.8638C12.4796 22.6326 12.4796 19.3683 12.8572 16.1371C13.0617 14.3899 14.4651 13.0195 16.2058 12.8252ZM25.5833 15.5C25.3402 15.5 25.107 15.5966 24.9351 15.7685C24.7632 15.9404 24.6667 16.1735 24.6667 16.4167C24.6667 16.6598 24.7632 16.8929 24.9351 17.0648C25.107 17.2368 25.3402 17.3333 25.5833 17.3333C25.8264 17.3333 26.0596 17.2368 26.2315 17.0648C26.4034 16.8929 26.5 16.6598 26.5 16.4167C26.5 16.1735 26.4034 15.9404 26.2315 15.7685C26.0596 15.5966 25.8264 15.5 25.5833 15.5ZM16.6458 21C16.6458 19.8452 17.1046 18.7377 17.9211 17.9211C18.7377 17.1046 19.8452 16.6458 21 16.6458C22.1548 16.6458 23.2623 17.1046 24.0788 17.9211C24.8954 18.7377 25.3542 19.8452 25.3542 21C25.3542 22.1548 24.8954 23.2623 24.0788 24.0789C23.2623 24.8954 22.1548 25.3542 21 25.3542C19.8452 25.3542 18.7377 24.8954 17.9211 24.0789C17.1046 23.2623 16.6458 22.1548 16.6458 21Z" fill="white"/>
</svg>
