<svg width="43" height="43" viewBox="0 0 43 43" fill="none" xmlns="http://www.w3.org/2000/svg">
<circle opacity="0.4" cx="21.2061" cy="21.2061" r="20.7061" stroke="#E8E7E7"/>
<path fill-rule="evenodd" clip-rule="evenodd" d="M26.7308 14.542C26.945 14.4518 27.1794 14.4208 27.4097 14.452C27.64 14.4832 27.8577 14.5755 28.0402 14.7194C28.2226 14.8633 28.3632 15.0535 28.4472 15.2701C28.5313 15.4868 28.5557 15.722 28.518 15.9513L26.5523 27.8747C26.3616 29.0249 25.0997 29.6844 24.0449 29.1115C23.1625 28.6323 21.8521 27.8938 20.6733 27.1233C20.0839 26.7376 18.2786 25.5025 18.5005 24.6237C18.6911 23.8722 21.7246 21.0485 23.4581 19.3696C24.1385 18.71 23.8282 18.3296 23.0247 18.9363C21.0295 20.4426 17.8261 22.7334 16.767 23.3782C15.8327 23.9468 15.3456 24.0438 14.7632 23.9468C13.7006 23.77 12.7151 23.4961 11.9108 23.1624C10.8239 22.7117 10.8768 21.2175 11.9099 20.7824L26.7308 14.542Z" fill="white"/>
</svg>
