<svg width="43" height="43" viewBox="0 0 43 43" fill="none" xmlns="http://www.w3.org/2000/svg">
<circle opacity="0.4" cx="21.2061" cy="21.2061" r="20.7061" stroke="#E8E7E7"/>
<path d="M25.3923 15.335C24.7659 14.6196 24.4206 13.7009 24.4207 12.75H21.5882V24.1167C21.5668 24.7319 21.3072 25.3148 20.8643 25.7424C20.4214 26.1699 19.8296 26.4087 19.214 26.4083C17.9123 26.4083 16.8307 25.345 16.8307 24.025C16.8307 22.4483 18.3523 21.2658 19.9198 21.7517V18.855C16.7573 18.4333 13.989 20.89 13.989 24.025C13.989 27.0775 16.519 29.25 19.2048 29.25C22.0832 29.25 24.4207 26.9125 24.4207 24.025V18.2592C25.5693 19.084 26.9483 19.5266 28.3623 19.5242V16.6917C28.3623 16.6917 26.639 16.7742 25.3923 15.335Z" fill="white"/>
</svg>
