<svg width="43" height="43" viewBox="0 0 43 43" fill="none" xmlns="http://www.w3.org/2000/svg">
<circle opacity="0.4" cx="21.2061" cy="21.2061" r="20.7061" stroke="#E8E7E7"/>
<path fill-rule="evenodd" clip-rule="evenodd" d="M21.5878 13.6666C22.3716 13.6666 23.1755 13.6868 23.9546 13.7198L24.875 13.7638L25.7559 13.816L26.5809 13.872L27.3344 13.9306C28.1522 13.9929 28.9219 14.3417 29.5078 14.9157C30.0937 15.4897 30.4582 16.252 30.5372 17.0684L30.5739 17.458L30.6426 18.2921C30.7068 19.1565 30.7545 20.0989 30.7545 21C30.7545 21.901 30.7068 22.8434 30.6426 23.7078L30.5739 24.542L30.5372 24.9315C30.4582 25.7481 30.0935 26.5105 29.5074 27.0845C28.9213 27.6585 28.1515 28.0073 27.3335 28.0693L26.5818 28.127L25.7568 28.1839L24.875 28.2361L23.9546 28.2801C23.1662 28.3143 22.377 28.332 21.5878 28.3333C20.7986 28.332 20.0095 28.3143 19.221 28.2801L18.3006 28.2361L17.4197 28.1839L16.5947 28.127L15.8412 28.0693C15.0234 28.0071 14.2537 27.6582 13.6678 27.0842C13.082 26.5103 12.7174 25.7479 12.6384 24.9315L12.6017 24.542L12.533 23.7078C12.4632 22.8068 12.4259 21.9036 12.4211 21C12.4211 20.0989 12.4688 19.1565 12.533 18.2921L12.6017 17.458L12.6384 17.0684C12.7174 16.2521 13.0818 15.4899 13.6675 14.916C14.2532 14.342 15.0226 13.9931 15.8403 13.9306L16.5929 13.872L17.4179 13.816L18.2997 13.7638L19.2201 13.7198C20.0089 13.6856 20.7983 13.6679 21.5878 13.6666ZM19.7545 18.777V23.2229C19.7545 23.6464 20.2128 23.9104 20.5795 23.6995L24.4295 21.4766C24.5133 21.4284 24.5828 21.3589 24.6312 21.2753C24.6796 21.1916 24.7051 21.0966 24.7051 21C24.7051 20.9033 24.6796 20.8083 24.6312 20.7247C24.5828 20.641 24.5133 20.5715 24.4295 20.5233L20.5795 18.3013C20.4958 18.253 20.401 18.2276 20.3044 18.2276C20.2078 18.2276 20.1129 18.2531 20.0293 18.3014C19.9457 18.3497 19.8763 18.4192 19.828 18.5028C19.7798 18.5865 19.7544 18.6814 19.7545 18.778V18.777Z" fill="white"/>
</svg>
