<svg width="24" height="24" viewBox="0 0 24 24" fill="none" xmlns="http://www.w3.org/2000/svg">
<path d="M24.0031 12C24.0031 18.6274 18.6298 24 12.0015 24C5.37327 24 0 18.6274 0 12C0 5.37258 5.37327 0 12.0015 0C18.6298 0 24.0031 5.37258 24.0031 12ZM2.40031 12C2.40031 17.3019 6.69892 21.6 12.0015 21.6C17.3042 21.6 21.6028 17.3019 21.6028 12C21.6028 6.69807 17.3042 2.4 12.0015 2.4C6.69892 2.4 2.40031 6.69807 2.40031 12Z" fill="#9CFB51"/>
<path d="M3.61503 11.574C5.81655 10.6405 8.54462 10.5213 11.419 12.5831C14.4963 14.7904 17.5226 14.7956 20.1904 13.8856C19.3337 17.6148 15.994 20.3961 12.0043 20.3961C7.36544 20.3961 3.6048 16.6361 3.60474 11.9978C3.60474 11.8557 3.60805 11.7144 3.61503 11.574Z" fill="#9CFB51"/>
</svg>
