<svg width="25" height="25" viewBox="0 0 25 25" fill="none" xmlns="http://www.w3.org/2000/svg">
<path fill-rule="evenodd" clip-rule="evenodd" d="M7.14361 5.3565C7.45733 5.35647 7.76111 5.46656 8.00195 5.66757C8.2428 5.86857 8.40543 6.14774 8.46148 6.45637L8.91149 8.93464C8.99276 9.38116 9.20824 9.7923 9.52921 10.1132C9.85017 10.4341 10.2614 10.6496 10.7079 10.7309L13.1865 11.1808C13.4953 11.2367 13.7747 11.3993 13.9759 11.6401C14.177 11.8809 14.2872 12.1847 14.2872 12.4985C14.2872 12.8123 14.177 13.1161 13.9759 13.3569C13.7747 13.5977 13.4953 13.7603 13.1865 13.8162L10.7079 14.2661C10.2614 14.3474 9.85017 14.5629 9.52921 14.8838C9.20824 15.2047 8.99276 15.6158 8.91149 16.0624L8.46148 18.5406C8.40557 18.8494 8.243 19.1287 8.00214 19.3298C7.76128 19.531 7.45743 19.6412 7.14361 19.6412C6.82979 19.6412 6.52594 19.531 6.28508 19.3298C6.04422 19.1287 5.88165 18.8494 5.82574 18.5406L5.37573 16.0624C5.29446 15.6158 5.07898 15.2047 4.75801 14.8838C4.43705 14.5629 4.02586 14.3474 3.57928 14.2661L1.10068 13.8162C0.791885 13.7603 0.512528 13.5977 0.311363 13.3569C0.110198 13.1161 0 12.8123 0 12.4985C0 12.1847 0.110198 11.8809 0.311363 11.6401C0.512528 11.3993 0.791885 11.2367 1.10068 11.1808L3.57928 10.7309C4.02586 10.6496 4.43705 10.4341 4.75801 10.1132C5.07898 9.7923 5.29446 9.38116 5.37573 8.93464L5.82574 6.45637C5.88179 6.14774 6.04442 5.86857 6.28527 5.66757C6.52611 5.46656 6.82989 5.35647 7.14361 5.3565ZM19.6438 0C19.9348 5.99922e-05 20.2178 0.0948902 20.4501 0.270142C20.6824 0.445394 20.8513 0.691532 20.9313 0.971312L21.2795 2.18902C21.4902 2.93001 22.0706 3.51029 22.8117 3.72098L24.0295 4.06915C24.3092 4.14925 24.5551 4.3182 24.7302 4.55046C24.9053 4.78271 25 5.06565 25 5.3565C25 5.64735 24.9053 5.93029 24.7302 6.16254C24.5551 6.3948 24.3092 6.56375 24.0295 6.64385L22.8117 6.99202C22.4472 7.09627 22.1153 7.29162 21.8472 7.55965C21.5791 7.82767 21.3838 8.15955 21.2795 8.52398L20.9313 9.74169C20.8512 10.0213 20.6822 10.2672 20.4499 10.4423C20.2176 10.6173 19.9346 10.712 19.6438 10.712C19.3529 10.712 19.0699 10.6173 18.8376 10.4423C18.6053 10.2672 18.4364 10.0213 18.3562 9.74169L18.008 8.52398C17.9038 8.15955 17.7084 7.82767 17.4403 7.55965C17.1723 7.29162 16.8403 7.09627 16.4759 6.99202L15.258 6.64385C14.9784 6.56375 14.7324 6.3948 14.5573 6.16254C14.3822 5.93029 14.2875 5.64735 14.2875 5.3565C14.2875 5.06565 14.3822 4.78271 14.5573 4.55046C14.7324 4.3182 14.9784 4.14925 15.258 4.06915L16.4759 3.72098C16.8403 3.61673 17.1723 3.42138 17.4403 3.15335C17.7084 2.88533 17.9038 2.55345 18.008 2.18902L18.3562 0.971312C18.4362 0.691532 18.6051 0.445394 18.8374 0.270142C19.0697 0.0948902 19.3527 5.99922e-05 19.6438 0ZM16.0723 17.855C16.3711 17.8548 16.6613 17.9546 16.8969 18.1383C17.1325 18.3221 17.2998 18.5794 17.3723 18.8692C17.4483 19.1729 17.6054 19.4503 17.8269 19.6717C18.0483 19.893 18.3257 20.0501 18.6295 20.1262C18.9199 20.1981 19.1778 20.3652 19.3622 20.6007C19.5466 20.8363 19.6468 21.1269 19.6468 21.426C19.6468 21.7251 19.5466 22.0157 19.3622 22.2513C19.1778 22.4868 18.9199 22.6539 18.6295 22.7258C18.3257 22.8019 18.0483 22.959 17.8269 23.1804C17.6054 23.4017 17.4483 23.6791 17.3723 23.9828C17.3004 24.2732 17.1333 24.5311 16.8977 24.7155C16.662 24.8998 16.3715 25 16.0723 25C15.7731 25 15.4825 24.8998 15.2469 24.7155C15.0113 24.5311 14.8442 24.2732 14.7723 23.9828C14.6962 23.6791 14.5391 23.4017 14.3177 23.1804C14.0963 22.959 13.8189 22.8019 13.5151 22.7258C13.2247 22.6539 12.9667 22.4868 12.7824 22.2513C12.598 22.0157 12.4978 21.7251 12.4978 21.426C12.4978 21.1269 12.598 20.8363 12.7824 20.6007C12.9667 20.3652 13.2247 20.1981 13.5151 20.1262C13.8189 20.0501 14.0963 19.893 14.3177 19.6717C14.5391 19.4503 14.6962 19.1729 14.7723 18.8692C14.8448 18.5794 15.0121 18.3221 15.2477 18.1383C15.4833 17.9546 15.7735 17.8548 16.0723 17.855Z" fill="#9CFB51"/>
</svg>
