<svg preserveAspectRatio="none" width="100%" height="100%" overflow="visible" style="display: block;" viewBox="0 0 32 32" fill="none" xmlns="http://www.w3.org/2000/svg">
<g id="Frame" clip-path="url(#clip0_0_11)">
<path id="Vector" d="M32 16C32 7.16344 24.8366 0 16 0C7.16344 0 0 7.16344 0 16C0 24.8366 7.16344 32 16 32C24.8366 32 32 24.8366 32 16Z" fill="var(--fill-0, white)"/>
<path id="Vector_2" d="M16 0.75C24.4223 0.75 31.25 7.57766 31.25 16C31.25 24.4223 24.4223 31.25 16 31.25C7.57766 31.25 0.75 24.4223 0.75 16C0.75 7.57766 7.57766 0.75 16 0.75Z" stroke="var(--stroke-0, black)" stroke-opacity="0.1"/>
<path id="Vector_3" fill-rule="evenodd" clip-rule="evenodd" d="M26.447 9.712C26.3839 9.56072 26.3055 9.4163 26.213 9.281C26.001 8.9575 25.682 8.5605 25.328 8.186V8.184C24.949 7.8035 24.563 7.474 24.2495 7.256C24.0925 7.1485 23.95 7.063 23.832 7.016C23.7765 6.99145 23.7174 6.97625 23.657 6.971C23.625 6.96726 23.5925 6.97061 23.5619 6.98081C23.5313 6.991 23.5034 7.0078 23.48 7.03L16.1425 14.1765C16.1029 14.2147 16.05 14.236 15.995 14.236C15.94 14.236 15.8871 14.2147 15.8475 14.1765L8.51 7.03C8.48589 7.00894 8.45781 6.99291 8.42741 6.98286C8.39701 6.97282 8.36491 6.96895 8.333 6.9715C8.278 6.9755 8.2165 6.9915 8.158 7.0165C8.0395 7.063 7.8955 7.1485 7.7405 7.2565C7.4275 7.474 7.0405 7.8055 6.662 8.184V8.186C6.308 8.5605 5.9885 8.9575 5.777 9.281C5.671 9.4415 5.5875 9.59 5.543 9.712C5.52115 9.76906 5.50686 9.82873 5.5005 9.8895C5.49766 9.9221 5.50181 9.95493 5.51268 9.9858C5.52354 10.0167 5.54087 10.0449 5.5635 10.0685L13.7615 18.047C13.7977 18.0821 13.8265 18.1242 13.8461 18.1706C13.8657 18.2171 13.8757 18.2671 13.8755 18.3175L13.8675 28.077C13.8675 28.15 13.91 28.205 13.947 28.2395C13.9855 28.276 14.0365 28.3065 14.0935 28.333C14.2075 28.388 14.364 28.439 14.549 28.4815C14.924 28.567 15.434 28.6285 16 28.6285C16.5655 28.6285 17.0765 28.567 17.451 28.4815C17.636 28.439 17.7925 28.388 17.9065 28.333C17.9635 28.3065 18.0145 28.274 18.053 28.2395C18.0768 28.2194 18.0961 28.1946 18.1098 28.1666C18.1235 28.1386 18.1312 28.1081 18.1325 28.077L18.1245 18.3175C18.1245 18.216 18.165 18.118 18.2385 18.047L26.4365 10.0685C26.4592 10.0449 26.4766 10.0167 26.4876 9.98586C26.4985 9.95499 26.5028 9.92214 26.5 9.8895C26.4948 9.82849 26.4803 9.76863 26.457 9.712H26.447Z" fill="url(#paint0_linear_0_11)"/>
</g>
<defs>
<linearGradient id="paint0_linear_0_11" x1="5.5" y1="18.2085" x2="26.3025" y2="16.4105" gradientUnits="userSpaceOnUse">
<stop offset="0.3" stop-color="#FF6A16"/>
<stop offset="0.543" stop-color="#FF3227"/>
<stop offset="0.89" stop-color="#FF66DD"/>
</linearGradient>
<clipPath id="clip0_0_11">
<rect width="32" height="32" fill="white"/>
</clipPath>
</defs>
</svg>
