<svg width="62" height="20" viewBox="0 0 62 20" fill="none" xmlns="http://www.w3.org/2000/svg">
<path d="M19.8115 19.9998V5.07104H21.6498V7.41439L21.4074 6.94976C21.8114 6.30332 22.3636 5.79155 23.0639 5.41446C23.7642 5.0239 24.5656 4.82862 25.4679 4.82862C26.4914 4.82862 27.4072 5.07777 28.2152 5.57607C29.0368 6.07437 29.6832 6.75448 30.1546 7.61641C30.6259 8.46486 30.8616 9.43453 30.8616 10.5254C30.8616 11.5893 30.6259 12.5523 30.1546 13.4142C29.6832 14.2761 29.0368 14.9562 28.2152 15.4545C27.4072 15.9528 26.4847 16.202 25.4477 16.202C24.5723 16.202 23.771 16.0067 23.0437 15.6161C22.3299 15.2256 21.7778 14.6734 21.3872 13.9596L21.6902 13.6364V19.9998H19.8115ZM25.3063 14.3839C25.9931 14.3839 26.6059 14.2155 27.1446 13.8788C27.6833 13.5421 28.1008 13.0842 28.397 12.5051C28.7068 11.9126 28.8617 11.2526 28.8617 10.5254C28.8617 9.77122 28.7068 9.11131 28.397 8.54567C28.1008 7.96656 27.6833 7.50867 27.1446 7.17198C26.6059 6.82182 25.9931 6.64674 25.3063 6.64674C24.6194 6.64674 23.9999 6.81509 23.4477 7.15178C22.909 7.48846 22.4781 7.9531 22.1549 8.54567C21.8451 9.12477 21.6902 9.78468 21.6902 10.5254C21.6902 11.2526 21.8451 11.9126 22.1549 12.5051C22.4781 13.0842 22.909 13.5421 23.4477 13.8788C23.9999 14.2155 24.6194 14.3839 25.3063 14.3839Z" fill="white"/>
<path d="M37.1478 16.0808C36.0839 16.0808 35.2624 15.7777 34.6833 15.1717C34.1176 14.5657 33.8348 13.7105 33.8348 12.6061V6.86896H31.8551V5.07104H32.2591C32.7439 5.07104 33.1278 4.92289 33.4106 4.62661C33.6934 4.33032 33.8348 3.93976 33.8348 3.45493V2.56607H35.7135V5.07104H38.1579V6.86896H35.7135V12.5455C35.7135 12.9092 35.7674 13.2256 35.8751 13.495C35.9963 13.7643 36.1916 13.9798 36.461 14.1414C36.7303 14.2896 37.0872 14.3637 37.5316 14.3637C37.6259 14.3637 37.7404 14.3569 37.8751 14.3435C38.0232 14.33 38.1579 14.3165 38.2791 14.3031V15.9596C38.104 16 37.9087 16.0269 37.6933 16.0404C37.4778 16.0673 37.296 16.0808 37.1478 16.0808Z" fill="white"/>
<path d="M45.0432 16.202C43.9927 16.202 43.0567 15.9528 42.2352 15.4545C41.4137 14.9562 40.7673 14.2761 40.2959 13.4142C39.8245 12.5388 39.5889 11.5624 39.5889 10.485C39.5889 9.39412 39.8178 8.42446 40.2757 7.576C40.7471 6.72755 41.38 6.0609 42.1746 5.57607C42.9827 5.07777 43.885 4.82862 44.8816 4.82862C45.6896 4.82862 46.4034 4.97676 47.0229 5.27305C47.6559 5.55587 48.1878 5.94643 48.6188 6.44473C49.0632 6.92956 49.3999 7.48846 49.6289 8.12144C49.8713 8.74095 49.9925 9.38739 49.9925 10.0608C49.9925 10.2089 49.979 10.3773 49.9521 10.5658C49.9386 10.7409 49.9184 10.9092 49.8915 11.0708H40.9625V9.45473H48.8006L47.9118 10.182C48.033 9.48166 47.9656 8.85542 47.7098 8.30325C47.4539 7.75108 47.0768 7.31339 46.5785 6.99016C46.0802 6.66694 45.5146 6.50533 44.8816 6.50533C44.2486 6.50533 43.6695 6.66694 43.1443 6.99016C42.619 7.31339 42.2083 7.77802 41.912 8.38406C41.6292 8.97663 41.5147 9.68368 41.5686 10.5052C41.5147 11.2998 41.6359 12.0001 41.9322 12.6061C42.2419 13.1987 42.6729 13.6633 43.2251 14C43.7907 14.3233 44.4035 14.4849 45.0634 14.4849C45.7906 14.4849 46.4034 14.3165 46.9017 13.9798C47.4 13.6431 47.804 13.2122 48.1138 12.6869L49.6895 13.495C49.474 13.9933 49.1373 14.4512 48.6794 14.8687C48.235 15.2727 47.703 15.5959 47.0835 15.8384C46.4775 16.0808 45.7974 16.202 45.0432 16.202Z" fill="white"/>
<path d="M52.038 15.9596V5.07104H53.8763V7.19218L53.5733 7.01037C53.8427 6.32352 54.2736 5.79155 54.8662 5.41446C55.4722 5.0239 56.1793 4.82862 56.9873 4.82862C57.7684 4.82862 58.462 5.0037 59.0681 5.35386C59.6876 5.70401 60.1724 6.18885 60.5225 6.80835C60.8862 7.42786 61.068 8.12817 61.068 8.90929V15.9596H59.1691V9.51533C59.1691 8.90929 59.0613 8.39753 58.8458 7.98003C58.6304 7.56254 58.3206 7.23931 57.9166 7.01037C57.526 6.76795 57.0749 6.64674 56.5631 6.64674C56.0513 6.64674 55.5934 6.76795 55.1894 7.01037C54.7989 7.23931 54.4891 7.56927 54.2602 8.00023C54.0312 8.41773 53.9167 8.92276 53.9167 9.51533V15.9596H52.038Z" fill="white"/>
<path d="M17.3485 8.67428C17.3485 13.465 13.4649 17.3486 8.67424 17.3486C3.88359 17.3486 0 13.465 0 8.67428C0 3.88361 3.88359 0 8.67424 0C13.4649 0 17.3485 3.88361 17.3485 8.67428ZM1.73485 8.67428C1.73485 12.5068 4.84172 15.6137 8.67424 15.6137C12.5068 15.6137 15.6136 12.5068 15.6136 8.67428C15.6136 4.84174 12.5068 1.73486 8.67424 1.73486C4.84172 1.73486 1.73485 4.84174 1.73485 8.67428Z" fill="white"/>
<path d="M2.61291 8.36634C4.20408 7.69155 6.17582 7.60535 8.25331 9.09574C10.4775 10.6913 12.6648 10.6951 14.593 10.0373C13.9737 12.733 11.56 14.7434 8.67637 14.7434C5.32355 14.7434 2.60552 12.0255 2.60547 8.67268C2.60547 8.56998 2.60787 8.46779 2.61291 8.36634Z" fill="white"/>
</svg>
