<svg width="24" height="12" viewBox="0 0 24 12" fill="none" xmlns="http://www.w3.org/2000/svg">
<path d="M0 6C0 3.17157 0 1.75736 0.87868 0.87868C1.75736 0 3.17157 0 6 0H18C20.8284 0 22.2426 0 23.1213 0.87868C24 1.75736 24 3.17157 24 6C24 8.82843 24 10.2426 23.1213 11.1213C22.2426 12 20.8284 12 18 12H6C3.17157 12 1.75736 12 0.87868 11.1213C0 10.2426 0 8.82843 0 6Z" fill="#9CFB51"/>
<path d="M9.02417 3.3966V8H8.28241L6.11333 4.86439H6.07512V8H5.2412V3.3966H5.98746L8.15429 6.53447H8.19475V3.3966H9.02417Z" fill="#010101"/>
<path d="M9.80623 8V3.3966H12.8002V4.09565H10.6401V5.3454H12.6451V6.04446H10.6401V7.30095H12.8182V8H9.80623Z" fill="#010101"/>
<path d="M14.4932 8L13.194 3.3966H14.0909L14.9203 6.77947H14.963L15.8486 3.3966H16.6645L17.5524 6.78172H17.5928L18.4223 3.3966H19.3191L18.0199 8H17.1972L16.2757 4.76998H16.2397L15.3159 8H14.4932Z" fill="#010101"/>
</svg>
