<svg preserveAspectRatio="none" width="100%" height="100%" overflow="visible" style="display: block;" viewBox="0 0 16 16" fill="none" xmlns="http://www.w3.org/2000/svg">
<g id="Frame">
<path id="Vector" d="M3.9 11.4C4.46667 10.9667 5.1 10.625 5.8 10.375C6.5 10.125 7.23333 10 8 10C8.76667 10 9.5 10.125 10.2 10.375C10.9 10.625 11.5333 10.9667 12.1 11.4C12.4889 10.9444 12.7917 10.4278 13.0083 9.85C13.225 9.27222 13.3333 8.65556 13.3333 8C13.3333 6.52222 12.8139 5.26389 11.775 4.225C10.7361 3.18611 9.47778 2.66667 8 2.66667C6.52222 2.66667 5.26389 3.18611 4.225 4.225C3.18611 5.26389 2.66667 6.52222 2.66667 8C2.66667 8.65556 2.775 9.27222 2.99167 9.85C3.20833 10.4278 3.51111 10.9444 3.9 11.4ZM6.34167 7.99167C5.89167 7.54167 5.66667 6.98889 5.66667 6.33333C5.66667 5.67778 5.89167 5.125 6.34167 4.675C6.79167 4.225 7.34444 4 8 4C8.65556 4 9.20833 4.225 9.65833 4.675C10.1083 5.125 10.3333 5.67778 10.3333 6.33333C10.3333 6.98889 10.1083 7.54167 9.65833 7.99167C9.20833 8.44167 8.65556 8.66667 8 8.66667C7.34444 8.66667 6.79167 8.44167 6.34167 7.99167ZM8 14.6667C7.07778 14.6667 6.21111 14.4917 5.4 14.1417C4.58889 13.7917 3.88333 13.3167 3.28333 12.7167C2.68333 12.1167 2.20833 11.4111 1.85833 10.6C1.50833 9.78889 1.33333 8.92222 1.33333 8C1.33333 7.07778 1.50833 6.21111 1.85833 5.4C2.20833 4.58889 2.68333 3.88333 3.28333 3.28333C3.88333 2.68333 4.58889 2.20833 5.4 1.85833C6.21111 1.50833 7.07778 1.33333 8 1.33333C8.92222 1.33333 9.78889 1.50833 10.6 1.85833C11.4111 2.20833 12.1167 2.68333 12.7167 3.28333C13.3167 3.88333 13.7917 4.58889 14.1417 5.4C14.4917 6.21111 14.6667 7.07778 14.6667 8C14.6667 8.92222 14.4917 9.78889 14.1417 10.6C13.7917 11.4111 13.3167 12.1167 12.7167 12.7167C12.1167 13.3167 11.4111 13.7917 10.6 14.1417C9.78889 14.4917 8.92222 14.6667 8 14.6667Z" fill="var(--fill-0, white)"/>
</g>
</svg>
