<svg preserveAspectRatio="none" width="100%" height="100%" overflow="visible" style="display: block;" viewBox="0 0 14 14" fill="none" xmlns="http://www.w3.org/2000/svg">
<g id="Frame">
<path id="Vector" d="M6.59167 9.15833L4.84167 7.40833C4.725 7.29167 4.66667 7.15556 4.66667 7C4.66667 6.84444 4.725 6.70833 4.84167 6.59167L6.59167 4.84167C6.70833 4.725 6.84444 4.66667 7 4.66667C7.15556 4.66667 7.29167 4.725 7.40833 4.84167L9.15833 6.59167C9.275 6.70833 9.33333 6.84444 9.33333 7C9.33333 7.15556 9.275 7.29167 9.15833 7.40833L7.40833 9.15833C7.29167 9.275 7.15556 9.33333 7 9.33333C6.84444 9.33333 6.70833 9.275 6.59167 9.15833ZM7.81667 12.4688C7.70972 12.5757 7.58333 12.6583 7.4375 12.7167C7.29167 12.775 7.14583 12.8042 7 12.8042C6.85417 12.8042 6.70833 12.775 6.5625 12.7167C6.41667 12.6583 6.29028 12.5757 6.18333 12.4688L1.53125 7.81667C1.42431 7.70972 1.34167 7.58333 1.28333 7.4375C1.225 7.29167 1.19583 7.14583 1.19583 7C1.19583 6.85417 1.225 6.70833 1.28333 6.5625C1.34167 6.41667 1.42431 6.29028 1.53125 6.18333L6.16875 1.54583C6.28542 1.42917 6.41424 1.34167 6.55521 1.28333C6.69618 1.225 6.84444 1.19583 7 1.19583C7.15556 1.19583 7.30382 1.225 7.44479 1.28333C7.58576 1.34167 7.71458 1.42917 7.83125 1.54583L12.4688 6.18333C12.5757 6.29028 12.6583 6.41667 12.7167 6.5625C12.775 6.70833 12.8042 6.85417 12.8042 7C12.8042 7.14583 12.775 7.29167 12.7167 7.4375C12.6583 7.58333 12.5757 7.70972 12.4688 7.81667L7.81667 12.4688ZM7 11.2L11.2 7L7 2.8L2.8 7L7 11.2Z" fill="var(--fill-0, #9CFB51)"/>
</g>
</svg>
