<svg preserveAspectRatio="none" width="100%" height="100%" overflow="visible" style="display: block;" viewBox="0 0 16 16" fill="none" xmlns="http://www.w3.org/2000/svg">
<g id="Frame">
<path id="Vector" fill-rule="evenodd" clip-rule="evenodd" d="M6 3C6.10864 3.00002 6.21432 3.03543 6.30105 3.10087C6.38777 3.1663 6.45083 3.2582 6.48067 3.36267L7.02267 5.26C7.13937 5.66861 7.3583 6.04073 7.65878 6.34122C7.95927 6.6417 8.33139 6.86063 8.74 6.97733L10.6373 7.51933C10.7417 7.54924 10.8336 7.61232 10.8989 7.69904C10.9643 7.78576 10.9996 7.8914 10.9996 8C10.9996 8.1086 10.9643 8.21424 10.8989 8.30096C10.8336 8.38768 10.7417 8.45076 10.6373 8.48067L8.74 9.02267C8.33139 9.13937 7.95927 9.3583 7.65878 9.65878C7.3583 9.95927 7.13937 10.3314 7.02267 10.74L6.48067 12.6373C6.45076 12.7417 6.38768 12.8336 6.30096 12.8989C6.21424 12.9643 6.1086 12.9996 6 12.9996C5.8914 12.9996 5.78576 12.9643 5.69904 12.8989C5.61232 12.8336 5.54924 12.7417 5.51933 12.6373L4.97733 10.74C4.86063 10.3314 4.6417 9.95927 4.34122 9.65878C4.04073 9.3583 3.66861 9.13937 3.26 9.02267L1.36267 8.48067C1.25827 8.45076 1.16645 8.38768 1.10108 8.30096C1.03572 8.21424 1.00036 8.1086 1.00036 8C1.00036 7.8914 1.03572 7.78576 1.10108 7.69904C1.16645 7.61232 1.25827 7.54924 1.36267 7.51933L3.26 6.97733C3.66861 6.86063 4.04073 6.6417 4.34122 6.34122C4.6417 6.04073 4.86063 5.66861 4.97733 5.26L5.51933 3.36267C5.54917 3.2582 5.61223 3.1663 5.69895 3.10087C5.78568 3.03543 5.89136 3.00002 6 3ZM12 1C12.1115 0.999938 12.2199 1.03718 12.3078 1.10579C12.3958 1.17441 12.4583 1.27046 12.4853 1.37867L12.6573 2.06933C12.8147 2.696 13.304 3.18533 13.9307 3.34267L14.6213 3.51467C14.7298 3.54152 14.8261 3.6039 14.8949 3.69187C14.9637 3.77983 15.0011 3.88831 15.0011 4C15.0011 4.11169 14.9637 4.22017 14.8949 4.30813C14.8261 4.3961 14.7298 4.45848 14.6213 4.48533L13.9307 4.65733C13.304 4.81467 12.8147 5.304 12.6573 5.93067L12.4853 6.62133C12.4585 6.72975 12.3961 6.82605 12.3081 6.89489C12.2202 6.96372 12.1117 7.00112 12 7.00112C11.8883 7.00112 11.7798 6.96372 11.6919 6.89489C11.6039 6.82605 11.5415 6.72975 11.5147 6.62133L11.3427 5.93067C11.2657 5.62295 11.1066 5.34193 10.8823 5.11765C10.6581 4.89337 10.377 4.73426 10.0693 4.65733L9.37867 4.48533C9.27025 4.45848 9.17395 4.3961 9.10511 4.30813C9.03628 4.22017 8.99888 4.11169 8.99888 4C8.99888 3.88831 9.03628 3.77983 9.10511 3.69187C9.17395 3.6039 9.27025 3.54152 9.37867 3.51467L10.0693 3.34267C10.377 3.26574 10.6581 3.10663 10.8823 2.88235C11.1066 2.65807 11.2657 2.37705 11.3427 2.06933L11.5147 1.37867C11.5417 1.27046 11.6042 1.17441 11.6922 1.10579C11.7801 1.03718 11.8885 0.999938 12 1ZM11 10C11.105 9.99994 11.2074 10.0329 11.2926 10.0943C11.3778 10.1557 11.4415 10.2424 11.4747 10.342L11.7373 11.1307C11.8373 11.4287 12.0707 11.6633 12.3693 11.7627L13.158 12.026C13.2573 12.0593 13.3436 12.123 13.4048 12.2081C13.466 12.2931 13.4989 12.3952 13.4989 12.5C13.4989 12.6048 13.466 12.7069 13.4048 12.7919C13.3436 12.877 13.2573 12.9407 13.158 12.974L12.3693 13.2373C12.0713 13.3373 11.8367 13.5707 11.7373 13.8693L11.474 14.658C11.4407 14.7573 11.377 14.8436 11.2919 14.9048C11.2069 14.966 11.1048 14.9989 11 14.9989C10.8952 14.9989 10.7931 14.966 10.7081 14.9048C10.623 14.8436 10.5593 14.7573 10.526 14.658L10.2627 13.8693C10.2136 13.7222 10.1309 13.5885 10.0212 13.4788C9.91152 13.3691 9.77781 13.2864 9.63067 13.2373L8.842 12.974C8.74269 12.9407 8.65636 12.877 8.5952 12.7919C8.53404 12.7069 8.50113 12.6048 8.50113 12.5C8.50113 12.3952 8.53404 12.2931 8.5952 12.2081C8.65636 12.123 8.74269 12.0593 8.842 12.026L9.63067 11.7627C9.92867 11.6627 10.1633 11.4293 10.2627 11.1307L10.526 10.342C10.5591 10.2425 10.6228 10.1559 10.7078 10.0945C10.7929 10.0331 10.8951 10.0001 11 10Z" fill="var(--fill-0, white)"/>
</g>
</svg>
