<svg preserveAspectRatio="none" width="100%" height="100%" overflow="visible" style="display: block;" viewBox="0 0 16 16" fill="none" xmlns="http://www.w3.org/2000/svg">
<g id="Frame">
<path id="Vector" d="M8.66667 2.08333V4.66667H13.9333C14.1444 4.66667 14.3111 4.73611 14.4333 4.875C14.5556 5.01389 14.6167 5.16667 14.6167 5.33333C14.6167 5.44444 14.5889 5.55278 14.5333 5.65833C14.4778 5.76389 14.3889 5.85 14.2667 5.91667L8.63333 8.98333C8.43333 9.09444 8.22222 9.15 8 9.15C7.77778 9.15 7.56667 9.09444 7.36667 8.98333L1.73333 5.91667C1.61111 5.85 1.525 5.76667 1.475 5.66667C1.425 5.56667 1.4 5.45556 1.4 5.33333C1.4 5.21111 1.425 5.1 1.475 5C1.525 4.9 1.61111 4.81667 1.73333 4.75L7.68333 1.5C7.79444 1.44444 7.91111 1.41944 8.03333 1.425C8.15556 1.43056 8.26111 1.46111 8.35 1.51667C8.43889 1.57222 8.51389 1.65 8.575 1.75C8.63611 1.85 8.66667 1.96111 8.66667 2.08333ZM8 10.4833L13.2333 7.63333C13.2556 7.62222 13.3611 7.59444 13.55 7.55C13.7389 7.55 13.8972 7.61389 14.025 7.74167C14.1528 7.86944 14.2167 8.02778 14.2167 8.21667C14.2167 8.33889 14.1889 8.45 14.1333 8.55C14.0778 8.65 13.9889 8.73333 13.8667 8.8L8.63333 11.65C8.53333 11.7056 8.43056 11.7472 8.325 11.775C8.21944 11.8028 8.11111 11.8167 8 11.8167C7.88889 11.8167 7.78056 11.8028 7.675 11.775C7.56944 11.7472 7.46667 11.7056 7.36667 11.65L2.13333 8.8C2.01111 8.73333 1.92222 8.65 1.86667 8.55C1.81111 8.45 1.78333 8.33889 1.78333 8.21667C1.78333 8.02778 1.84722 7.86944 1.975 7.74167C2.10278 7.61389 2.26111 7.55 2.45 7.55C2.50556 7.55 2.55833 7.55833 2.60833 7.575C2.65833 7.59167 2.71111 7.61111 2.76667 7.63333L8 10.4833ZM8 13.15L13.2333 10.3C13.2556 10.2889 13.3611 10.2611 13.55 10.2167C13.7389 10.2167 13.8972 10.2806 14.025 10.4083C14.1528 10.5361 14.2167 10.6944 14.2167 10.8833C14.2167 11.0056 14.1889 11.1167 14.1333 11.2167C14.0778 11.3167 13.9889 11.4 13.8667 11.4667L8.63333 14.3167C8.53333 14.3722 8.43056 14.4139 8.325 14.4417C8.21944 14.4694 8.11111 14.4833 8 14.4833C7.88889 14.4833 7.78056 14.4694 7.675 14.4417C7.56944 14.4139 7.46667 14.3722 7.36667 14.3167L2.13333 11.4667C2.01111 11.4 1.92222 11.3167 1.86667 11.2167C1.81111 11.1167 1.78333 11.0056 1.78333 10.8833C1.78333 10.6944 1.84722 10.5361 1.975 10.4083C2.10278 10.2806 2.26111 10.2167 2.45 10.2167C2.50556 10.2167 2.55833 10.225 2.60833 10.2417C2.65833 10.2583 2.71111 10.2778 2.76667 10.3L8 13.15Z" fill="var(--fill-0, white)"/>
</g>
</svg>
