<svg preserveAspectRatio="none" width="100%" height="100%" overflow="visible" style="display: block;" viewBox="0 0 16 16" fill="none" xmlns="http://www.w3.org/2000/svg">
<g id="Frame">
<path id="Vector" d="M11.6833 7.08333C11.8389 6.98333 11.9167 6.84444 11.9167 6.66667C11.9167 6.48889 11.8389 6.35 11.6833 6.25L8.43333 4.16667C8.26667 4.05556 8.09722 4.04722 7.925 4.14167C7.75278 4.23611 7.66667 4.38333 7.66667 4.58333V8.75C7.66667 8.95 7.75278 9.09722 7.925 9.19167C8.09722 9.28611 8.26667 9.27778 8.43333 9.16667L11.6833 7.08333ZM5.33333 12C4.96667 12 4.65278 11.8694 4.39167 11.6083C4.13056 11.3472 4 11.0333 4 10.6667V2.66667C4 2.3 4.13056 1.98611 4.39167 1.725C4.65278 1.46389 4.96667 1.33333 5.33333 1.33333H13.3333C13.7 1.33333 14.0139 1.46389 14.275 1.725C14.5361 1.98611 14.6667 2.3 14.6667 2.66667V10.6667C14.6667 11.0333 14.5361 11.3472 14.275 11.6083C14.0139 11.8694 13.7 12 13.3333 12H5.33333ZM2.66667 14.6667C2.3 14.6667 1.98611 14.5361 1.725 14.275C1.46389 14.0139 1.33333 13.7 1.33333 13.3333V4.66667C1.33333 4.47778 1.39722 4.31944 1.525 4.19167C1.65278 4.06389 1.81111 4 2 4C2.18889 4 2.34722 4.06389 2.475 4.19167C2.60278 4.31944 2.66667 4.47778 2.66667 4.66667V13.3333H11.3333C11.5222 13.3333 11.6806 13.3972 11.8083 13.525C11.9361 13.6528 12 13.8111 12 14C12 14.1889 11.9361 14.3472 11.8083 14.475C11.6806 14.6028 11.5222 14.6667 11.3333 14.6667H2.66667Z" fill="var(--fill-0, white)"/>
</g>
</svg>
