<svg width="124" height="23" viewBox="0 0 124 23" fill="none" xmlns="http://www.w3.org/2000/svg">
<path d="M22.3848 22.5977V5.7301H24.4618V8.3778L24.1879 7.85282C24.6444 7.12243 25.2683 6.54419 26.0596 6.11813C26.8509 5.67685 27.7563 5.45621 28.7758 5.45621C29.9323 5.45621 30.967 5.73771 31.88 6.30073C32.8082 6.86374 33.5386 7.63218 34.0712 8.60605C34.6038 9.56469 34.8701 10.6603 34.8701 11.8928C34.8701 13.095 34.6038 14.1829 34.0712 15.1568C33.5386 16.1307 32.8082 16.8991 31.88 17.4621C30.967 18.0251 29.9247 18.3066 28.753 18.3066C27.7639 18.3066 26.8585 18.086 26.0368 17.6447C25.2303 17.2034 24.6064 16.5796 24.1651 15.7731L24.5075 15.4079V22.5977H22.3848ZM28.5932 16.2524C29.3692 16.2524 30.0616 16.0622 30.6703 15.6818C31.2789 15.3014 31.7507 14.784 32.0854 14.1297C32.4354 13.4602 32.6104 12.7145 32.6104 11.8928C32.6104 11.0407 32.4354 10.2951 32.0854 9.65599C31.7507 9.00168 31.2789 8.48431 30.6703 8.1039C30.0616 7.70827 29.3692 7.51045 28.5932 7.51045C27.8171 7.51045 27.1172 7.70066 26.4933 8.08107C25.8846 8.46149 25.3977 8.98646 25.0325 9.65599C24.6825 10.3103 24.5075 11.0559 24.5075 11.8928C24.5075 12.7145 24.6825 13.4602 25.0325 14.1297C25.3977 14.784 25.8846 15.3014 26.4933 15.6818C27.1172 16.0622 27.8171 16.2524 28.5932 16.2524Z" fill="white"/>
<path d="M41.9728 18.1697C40.7707 18.1697 39.8425 17.8273 39.1881 17.1426C38.549 16.4578 38.2295 15.4916 38.2295 14.2438V7.76152H35.9926V5.7301H36.4491C36.9969 5.7301 37.4306 5.56272 37.7502 5.22795C38.0697 4.89319 38.2295 4.45191 38.2295 3.90411V2.89981H40.3522V5.7301H43.114V7.76152H40.3522V14.1753C40.3522 14.5862 40.4131 14.9438 40.5348 15.2481C40.6718 15.5524 40.8924 15.7959 41.1967 15.9785C41.5011 16.1459 41.9043 16.2296 42.4065 16.2296C42.513 16.2296 42.6423 16.222 42.7945 16.2068C42.9619 16.1915 43.1141 16.1763 43.251 16.1611V18.0327C43.0532 18.0784 42.8325 18.1088 42.5891 18.124C42.3456 18.1545 42.1402 18.1697 41.9728 18.1697Z" fill="white"/>
<path d="M50.8937 18.3066C49.7068 18.3066 48.6492 18.0251 47.721 17.4621C46.7927 16.8991 46.0623 16.1307 45.5298 15.1568C44.9972 14.1677 44.7309 13.0645 44.7309 11.8472C44.7309 10.6146 44.9896 9.51904 45.5069 8.5604C46.0395 7.60175 46.7547 6.84853 47.6525 6.30073C48.5655 5.73771 49.585 5.45621 50.7111 5.45621C51.6241 5.45621 52.4305 5.62359 53.1305 5.95835C53.8457 6.2779 54.4468 6.71918 54.9337 7.2822C55.4359 7.83 55.8163 8.46149 56.075 9.17667C56.3489 9.87664 56.4858 10.607 56.4858 11.3679C56.4858 11.5352 56.4706 11.7255 56.4402 11.9385C56.4249 12.1363 56.4021 12.3265 56.3717 12.5091H46.283V10.6831H55.1391L54.1348 11.5048C54.2718 10.7135 54.1957 10.006 53.9066 9.38209C53.6175 8.75821 53.1914 8.26367 52.6284 7.89847C52.0653 7.53327 51.4262 7.35068 50.7111 7.35068C49.9959 7.35068 49.3416 7.53327 48.7481 7.89847C48.1546 8.26367 47.6905 8.78865 47.3558 9.47339C47.0362 10.1429 46.9069 10.9418 46.9677 11.87C46.9069 12.7678 47.0438 13.5591 47.3786 14.2438C47.7286 14.9133 48.2155 15.4383 48.8394 15.8187C49.4785 16.1839 50.1709 16.3665 50.9165 16.3665C51.7382 16.3665 52.4305 16.1763 52.9936 15.7959C53.5566 15.4155 54.0131 14.9286 54.3631 14.3351L56.1434 15.2481C55.9 15.8111 55.5195 16.3285 55.0022 16.8002C54.5 17.2567 53.899 17.6219 53.199 17.8958C52.5142 18.1697 51.7458 18.3066 50.8937 18.3066Z" fill="white"/>
<path d="M58.797 18.0327V5.7301H60.8741V8.12672L60.5317 7.9213C60.8361 7.14525 61.323 6.54419 61.9925 6.11813C62.6773 5.67685 63.4762 5.45621 64.3892 5.45621C65.2717 5.45621 66.0554 5.65402 66.7402 6.04965C67.4401 6.44529 67.9879 6.99308 68.3836 7.69305C68.7944 8.39301 68.9998 9.18428 68.9998 10.0668V18.0327H66.8543V10.7516C66.8543 10.0668 66.7325 9.48861 66.4891 9.0169C66.2456 8.54518 65.8956 8.17998 65.4391 7.9213C64.9978 7.6474 64.4881 7.51045 63.9098 7.51045C63.3316 7.51045 62.8142 7.6474 62.3577 7.9213C61.9165 8.17998 61.5665 8.55279 61.3078 9.03972C61.0491 9.51144 60.9198 10.0821 60.9198 10.7516V18.0327H58.797Z" fill="white"/>
<path d="M19.6018 9.80083C19.6018 15.2137 15.2138 19.6017 9.8009 19.6017C4.38801 19.6017 0 15.2137 0 9.80083C0 4.38798 4.38801 0 9.8009 0C15.2138 0 19.6018 4.38798 19.6018 9.80083ZM1.96018 9.80083C1.96018 14.1311 5.47059 17.6415 9.8009 17.6415C14.1312 17.6415 17.6416 14.1311 17.6416 9.80083C17.6416 5.47055 14.1312 1.96017 9.8009 1.96017C5.47059 1.96017 1.96018 5.47055 1.96018 9.80083Z" fill="#9CFB51"/>
<path d="M2.95176 9.45293C4.74961 8.6905 6.97745 8.59311 9.32477 10.2771C11.8378 12.0799 14.3092 12.0841 16.4878 11.3409C15.7882 14.3867 13.0609 16.6582 9.80278 16.6582C6.01449 16.6582 2.94341 13.5873 2.94336 9.79906C2.94336 9.68302 2.94607 9.56755 2.95176 9.45293Z" fill="#9CFB51"/>
<path d="M73 11.4131C73 6.99478 76.5817 3.41306 81 3.41306H116C120.418 3.41306 124 6.99478 124 11.4131C124 15.8313 120.418 19.4131 116 19.4131H81C76.5817 19.4131 73 15.8313 73 11.4131Z" fill="#9CFB51"/>
<path d="M81.6976 16.5675C81.0884 16.5675 80.5221 16.456 79.9988 16.2329C79.484 16.0098 79.0379 15.7009 78.6604 15.3063C78.2914 14.903 78.0212 14.4354 77.8496 13.9035L79.3038 13.2729C79.5355 13.822 79.8701 14.2553 80.3077 14.5727C80.7452 14.8816 81.2386 15.036 81.7877 15.036C82.0965 15.036 82.3625 14.9888 82.5856 14.8944C82.8172 14.7915 82.9931 14.6542 83.1132 14.4826C83.2419 14.311 83.3063 14.1051 83.3063 13.8649C83.3063 13.5818 83.2205 13.3501 83.0489 13.1699C82.8859 12.9812 82.637 12.8353 82.3024 12.7324L80.4621 12.1404C79.7157 11.9087 79.1537 11.5612 78.7762 11.0979C78.3987 10.6346 78.2099 10.0898 78.2099 9.46349C78.2099 8.91439 78.3429 8.42963 78.6089 8.00923C78.8834 7.58882 79.2609 7.26279 79.7414 7.03114C80.2304 6.79091 80.7881 6.67079 81.4144 6.67079C81.9893 6.67079 82.5169 6.77375 82.9974 6.97966C83.4779 7.177 83.8897 7.45584 84.2329 7.81619C84.5846 8.16795 84.8463 8.58407 85.0179 9.06453L83.5765 9.70801C83.3878 9.22755 83.1046 8.85862 82.7271 8.60123C82.3496 8.33526 81.9121 8.20227 81.4144 8.20227C81.1227 8.20227 80.8653 8.25375 80.6423 8.35671C80.4192 8.45108 80.2433 8.58836 80.1146 8.76853C79.9945 8.94013 79.9344 9.14604 79.9344 9.38627C79.9344 9.65224 80.0202 9.88819 80.1918 10.0941C80.3634 10.2914 80.6251 10.4459 80.9769 10.5574L82.74 11.1108C83.5036 11.3596 84.0741 11.7028 84.4517 12.1404C84.8377 12.5779 85.0308 13.1184 85.0308 13.7619C85.0308 14.311 84.8892 14.7958 84.6061 15.2162C84.323 15.6366 83.9326 15.9669 83.435 16.2071C82.9373 16.4474 82.3582 16.5675 81.6976 16.5675Z" fill="#011417"/>
<path d="M86.3494 16.4131V6.82523H89.9272C90.5792 6.82523 91.1541 6.94534 91.6517 7.18558C92.1579 7.41723 92.5525 7.76042 92.8357 8.21514C93.1188 8.66129 93.2604 9.2061 93.2604 9.84958C93.2604 10.4845 93.1145 11.0293 92.8228 11.484C92.5397 11.9302 92.1493 12.2733 91.6517 12.5136C91.1541 12.7538 90.5792 12.8739 89.9272 12.8739H88.0997V16.4131H86.3494ZM88.0997 11.3296H89.9529C90.2703 11.3296 90.5449 11.2695 90.7765 11.1494C91.0082 11.0207 91.1884 10.8448 91.3171 10.6218C91.4458 10.3987 91.5101 10.1413 91.5101 9.84958C91.5101 9.54929 91.4458 9.2919 91.3171 9.0774C91.1884 8.85433 91.0082 8.68274 90.7765 8.56262C90.5449 8.43393 90.2703 8.36958 89.9529 8.36958H88.0997V11.3296Z" fill="#011417"/>
<path d="M92.8854 16.4131L96.1929 6.82523H98.458L101.765 16.4131H99.8607L99.1787 14.3539H95.4722L94.7773 16.4131H92.8854ZM95.9741 12.8096H98.6767L97.0809 8.03497H97.57L95.9741 12.8096Z" fill="#011417"/>
<path d="M106.69 16.5675C106.003 16.5675 105.369 16.4431 104.785 16.1943C104.21 15.9455 103.704 15.598 103.267 15.1518C102.838 14.7057 102.503 14.1823 102.263 13.5818C102.022 12.9812 101.902 12.3248 101.902 11.6127C101.902 10.9006 102.018 10.2442 102.25 9.64366C102.49 9.0345 102.825 8.51114 103.254 8.07358C103.691 7.62743 104.202 7.28424 104.785 7.04401C105.369 6.7952 106.003 6.67079 106.69 6.67079C107.376 6.67079 107.99 6.78662 108.53 7.01827C109.079 7.24992 109.543 7.55879 109.92 7.94488C110.298 8.32239 110.568 8.7385 110.731 9.19323L109.161 9.92679C108.981 9.44633 108.676 9.05166 108.247 8.74279C107.818 8.42535 107.299 8.26662 106.69 8.26662C106.089 8.26662 105.557 8.40819 105.094 8.69132C104.639 8.97445 104.283 9.36482 104.026 9.86245C103.777 10.3601 103.653 10.9435 103.653 11.6127C103.653 12.2819 103.777 12.8696 104.026 13.3758C104.283 13.8735 104.639 14.2638 105.094 14.547C105.557 14.8301 106.089 14.9717 106.69 14.9717C107.299 14.9717 107.818 14.8172 108.247 14.5084C108.676 14.1909 108.981 13.792 109.161 13.3115L110.731 14.0451C110.568 14.4998 110.298 14.9202 109.92 15.3063C109.543 15.6838 109.079 15.9884 108.53 16.22C107.99 16.4517 107.376 16.5675 106.69 16.5675Z" fill="#011417"/>
<path d="M111.894 16.4131V6.82523H118.265V8.36958H113.645V10.8277H118.008V12.372H113.645V14.8687H118.265V16.4131H111.894Z" fill="#011417"/>
</svg>
