<svg width="158" height="23" viewBox="0 0 158 23" fill="none" xmlns="http://www.w3.org/2000/svg">
<path d="M22.3849 22.5977V5.73011H24.462V8.3778L24.1881 7.85283C24.6446 7.12243 25.2685 6.5442 26.0598 6.11813C26.851 5.67685 27.7564 5.45621 28.776 5.45621C29.9324 5.45621 30.9672 5.73772 31.8802 6.30073C32.8084 6.86375 33.5388 7.63219 34.0714 8.60605C34.604 9.5647 34.8703 10.6603 34.8703 11.8928C34.8703 13.095 34.604 14.1829 34.0714 15.1568C33.5388 16.1307 32.8084 16.8991 31.8802 17.4621C30.9672 18.0251 29.9248 18.3067 28.7531 18.3067C27.764 18.3067 26.8587 18.086 26.0369 17.6447C25.2305 17.2034 24.6066 16.5796 24.1653 15.7731L24.5077 15.4079V22.5977H22.3849ZM28.5934 16.2524C29.3694 16.2524 30.0618 16.0622 30.6704 15.6818C31.2791 15.3014 31.7508 14.784 32.0856 14.1297C32.4356 13.4602 32.6106 12.7145 32.6106 11.8928C32.6106 11.0407 32.4356 10.2951 32.0856 9.656C31.7508 9.00168 31.2791 8.48432 30.6704 8.1039C30.0618 7.70827 29.3694 7.51046 28.5934 7.51046C27.8173 7.51046 27.1173 7.70066 26.4935 8.08108C25.8848 8.46149 25.3978 8.98647 25.0326 9.656C24.6827 10.3103 24.5077 11.0559 24.5077 11.8928C24.5077 12.7145 24.6827 13.4602 25.0326 14.1297C25.3978 14.784 25.8848 15.3014 26.4935 15.6818C27.1173 16.0622 27.8173 16.2524 28.5934 16.2524Z" fill="white"/>
<path d="M41.973 18.1697C40.7708 18.1697 39.8426 17.8273 39.1883 17.1426C38.5492 16.4578 38.2296 15.4916 38.2296 14.2438V7.76153H35.9928V5.73011H36.4493C36.9971 5.73011 37.4308 5.56273 37.7503 5.22796C38.0699 4.8932 38.2296 4.45191 38.2296 3.90411V2.89982H40.3524V5.73011H43.1142V7.76153H40.3524V14.1753C40.3524 14.5862 40.4132 14.9438 40.535 15.2481C40.6719 15.5524 40.8926 15.7959 41.1969 15.9785C41.5012 16.1459 41.9045 16.2296 42.4066 16.2296C42.5132 16.2296 42.6425 16.222 42.7947 16.2068C42.9621 16.1915 43.1142 16.1763 43.2512 16.1611V18.0328C43.0534 18.0784 42.8327 18.1088 42.5892 18.1241C42.3458 18.1545 42.1403 18.1697 41.973 18.1697Z" fill="white"/>
<path d="M50.8938 18.3067C49.7069 18.3067 48.6494 18.0251 47.7211 17.4621C46.7929 16.8991 46.0625 16.1307 45.5299 15.1568C44.9973 14.1677 44.7311 13.0645 44.7311 11.8472C44.7311 10.6146 44.9897 9.51905 45.5071 8.5604C46.0397 7.60176 46.7549 6.84853 47.6527 6.30073C48.5657 5.73772 49.5852 5.45621 50.7112 5.45621C51.6242 5.45621 52.4307 5.62359 53.1307 5.95836C53.8459 6.27791 54.4469 6.71919 54.9339 7.28221C55.436 7.83 55.8164 8.46149 56.0751 9.17668C56.349 9.87664 56.486 10.607 56.486 11.3679C56.486 11.5353 56.4708 11.7255 56.4403 11.9385C56.4251 12.1363 56.4023 12.3265 56.3718 12.5091H46.2832V10.6831H55.1393L54.135 11.5048C54.2719 10.7136 54.1959 10.006 53.9067 9.3821C53.6176 8.75822 53.1916 8.26368 52.6285 7.89848C52.0655 7.53328 51.4264 7.35068 50.7112 7.35068C49.996 7.35068 49.3417 7.53328 48.7483 7.89848C48.1548 8.26368 47.6907 8.78865 47.3559 9.4734C47.0364 10.1429 46.907 10.9418 46.9679 11.87C46.907 12.7678 47.044 13.5591 47.3788 14.2438C47.7287 14.9133 48.2157 15.4383 48.8396 15.8187C49.4787 16.1839 50.171 16.3665 50.9166 16.3665C51.7384 16.3665 52.4307 16.1763 52.9937 15.7959C53.5568 15.4155 54.0133 14.9286 54.3632 14.3351L56.1436 15.2481C55.9001 15.8111 55.5197 16.3285 55.0023 16.8002C54.5002 17.2567 53.8991 17.6219 53.1992 17.8958C52.5144 18.1697 51.746 18.3067 50.8938 18.3067Z" fill="white"/>
<path d="M58.7972 18.0328V5.73011H60.8743V8.12673L60.5319 7.9213C60.8362 7.14526 61.3232 6.5442 61.9927 6.11813C62.6775 5.67685 63.4763 5.45621 64.3893 5.45621C65.2719 5.45621 66.0556 5.65403 66.7403 6.04966C67.4403 6.44529 67.9881 6.99309 68.3837 7.69306C68.7946 8.39302 69 9.18429 69 10.0668V18.0328H66.8544V10.7516C66.8544 10.0668 66.7327 9.48862 66.4892 9.0169C66.2458 8.54519 65.8958 8.17999 65.4393 7.9213C64.998 7.6474 64.4883 7.51046 63.91 7.51046C63.3318 7.51046 62.8144 7.6474 62.3579 7.9213C61.9166 8.17999 61.5666 8.55279 61.308 9.03973C61.0493 9.51144 60.9199 10.0821 60.9199 10.7516V18.0328H58.7972Z" fill="white"/>
<path d="M19.6018 9.80083C19.6018 15.2137 15.2138 19.6017 9.8009 19.6017C4.38801 19.6017 0 15.2137 0 9.80083C0 4.38798 4.38801 0 9.8009 0C15.2138 0 19.6018 4.38798 19.6018 9.80083ZM1.96018 9.80083C1.96018 14.1311 5.47059 17.6415 9.8009 17.6415C14.1312 17.6415 17.6416 14.1311 17.6416 9.80083C17.6416 5.47055 14.1312 1.96017 9.8009 1.96017C5.47059 1.96017 1.96018 5.47055 1.96018 9.80083Z" fill="#9CFB51"/>
<path d="M2.95191 9.45294C4.74975 8.69051 6.9776 8.59313 9.32492 10.2771C11.838 12.0799 14.3094 12.0841 16.488 11.3409C15.7883 14.3867 13.0611 16.6582 9.80293 16.6582C6.01463 16.6582 2.94356 13.5873 2.94351 9.79907C2.94351 9.68304 2.94622 9.56757 2.95191 9.45294Z" fill="#9CFB51"/>
<rect x="75" y="3.7989" width="46" height="15" rx="7.5" fill="#9CFB51"/>
<path d="M83.0019 15.941C82.4415 15.941 81.9205 15.8384 81.439 15.6331C80.9654 15.4279 80.555 15.1438 80.2077 14.7807C79.8683 14.4097 79.6196 13.9795 79.4618 13.4901L80.7997 12.9099C81.0128 13.4151 81.3206 13.8137 81.7232 14.1058C82.1258 14.3899 82.5796 14.532 83.0848 14.532C83.369 14.532 83.6137 14.4886 83.8189 14.4018C84.032 14.3071 84.1938 14.1808 84.3043 14.0229C84.4227 13.865 84.4819 13.6756 84.4819 13.4546C84.4819 13.1941 84.403 12.981 84.2451 12.8152C84.0951 12.6416 83.8662 12.5074 83.5584 12.4127L81.8653 11.868C81.1786 11.6549 80.6615 11.3352 80.3142 10.909C79.9669 10.4827 79.7933 9.98151 79.7933 9.4053C79.7933 8.90012 79.9156 8.45415 80.1603 8.06738C80.4129 7.6806 80.7602 7.38066 81.2022 7.16754C81.6522 6.94652 82.1652 6.83602 82.7414 6.83602C83.2703 6.83602 83.7557 6.93074 84.1978 7.12018C84.6398 7.30172 85.0187 7.55826 85.3344 7.88978C85.658 8.2134 85.8988 8.59623 86.0566 9.03826L84.7306 9.63026C84.5569 9.18823 84.2964 8.84882 83.9491 8.61202C83.6018 8.36732 83.1993 8.24498 82.7414 8.24498C82.4731 8.24498 82.2363 8.29234 82.031 8.38706C81.8258 8.47389 81.664 8.60018 81.5456 8.76594C81.4351 8.92381 81.3798 9.11325 81.3798 9.33426C81.3798 9.57895 81.4588 9.79602 81.6166 9.98546C81.7745 10.167 82.0153 10.3091 82.3389 10.4117L83.961 10.9208C84.6635 11.1497 85.1884 11.4655 85.5357 11.868C85.8909 12.2706 86.0685 12.7679 86.0685 13.3599C86.0685 13.865 85.9382 14.311 85.6778 14.6978C85.4173 15.0846 85.0581 15.3884 84.6003 15.6095C84.1425 15.8305 83.6097 15.941 83.0019 15.941ZM87.2816 15.7989V6.9781H90.5731C91.173 6.9781 91.7019 7.0886 92.1597 7.30962C92.6254 7.52274 92.9885 7.83847 93.249 8.25682C93.5095 8.66727 93.6397 9.1685 93.6397 9.7605C93.6397 10.3446 93.5055 10.8458 93.2371 11.2642C92.9767 11.6746 92.6175 11.9904 92.1597 12.2114C91.7019 12.4324 91.173 12.5429 90.5731 12.5429H88.8919V15.7989H87.2816ZM88.8919 11.1221H90.5968C90.8889 11.1221 91.1415 11.0668 91.3546 10.9563C91.5677 10.8379 91.7335 10.6761 91.8519 10.4709C91.9703 10.2657 92.0295 10.0289 92.0295 9.7605C92.0295 9.48423 91.9703 9.24743 91.8519 9.0501C91.7335 8.84487 91.5677 8.68701 91.3546 8.5765C91.1415 8.4581 90.8889 8.3989 90.5968 8.3989H88.8919V11.1221ZM93.2948 15.7989L96.3376 6.9781H98.4215L101.464 15.7989H99.712L99.0845 13.9045H95.6746L95.0352 15.7989H93.2948ZM96.1364 12.4837H98.6228L97.1546 8.09106H97.6045L96.1364 12.4837ZM105.995 15.941C105.363 15.941 104.779 15.8265 104.243 15.5976C103.714 15.3687 103.248 15.049 102.845 14.6386C102.451 14.2281 102.143 13.7466 101.922 13.1941C101.701 12.6416 101.59 12.0377 101.59 11.3826C101.59 10.7274 101.697 10.1236 101.91 9.57106C102.131 9.01063 102.439 8.52914 102.834 8.12658C103.236 7.71612 103.706 7.40039 104.243 7.17938C104.779 6.95047 105.363 6.83602 105.995 6.83602C106.626 6.83602 107.191 6.94258 107.688 7.1557C108.193 7.36882 108.619 7.65298 108.967 8.00818C109.314 8.35548 109.563 8.73831 109.713 9.15666L108.268 9.83154C108.102 9.38951 107.822 9.02642 107.427 8.74226C107.033 8.45021 106.555 8.30418 105.995 8.30418C105.442 8.30418 104.953 8.43442 104.527 8.6949C104.108 8.95538 103.781 9.31453 103.544 9.77234C103.315 10.2302 103.201 10.7669 103.201 11.3826C103.201 11.9983 103.315 12.539 103.544 13.0047C103.781 13.4625 104.108 13.8216 104.527 14.0821C104.953 14.3426 105.442 14.4728 105.995 14.4728C106.555 14.4728 107.033 14.3307 107.427 14.0466C107.822 13.7545 108.102 13.3875 108.268 12.9455L109.713 13.6203C109.563 14.0387 109.314 14.4255 108.967 14.7807C108.619 15.128 108.193 15.4082 107.688 15.6213C107.191 15.8344 106.626 15.941 105.995 15.941ZM110.783 15.7989V6.9781H116.644V8.3989H112.393V10.6603H116.407V12.0811H112.393V14.3781H116.644V15.7989H110.783Z" fill="#011417"/>
<rect x="121" y="3.7989" width="37" height="15" rx="7.5" fill="#9CFB51" fill-opacity="0.1"/>
<path opacity="0.6" d="M125.852 15.7989V6.9781H129.57C130.154 6.9781 130.652 7.08071 131.062 7.28594C131.48 7.48327 131.8 7.76743 132.021 8.13842C132.25 8.50151 132.364 8.94354 132.364 9.4645C132.364 9.86706 132.254 10.2459 132.033 10.6011C131.82 10.9484 131.476 11.2366 131.003 11.4655V10.7195C131.437 10.8853 131.78 11.0905 132.033 11.3352C132.286 11.5799 132.463 11.8522 132.566 12.1522C132.668 12.4521 132.72 12.7679 132.72 13.0994C132.72 13.944 132.439 14.607 131.879 15.0885C131.327 15.5621 130.557 15.7989 129.57 15.7989H125.852ZM127.463 14.3781H129.736C130.154 14.3781 130.486 14.2636 130.731 14.0347C130.983 13.7979 131.109 13.4862 131.109 13.0994C131.109 12.7126 130.983 12.4008 130.731 12.164C130.486 11.9272 130.154 11.8088 129.736 11.8088H127.463V14.3781ZM127.463 10.3999H129.653C129.985 10.3999 130.249 10.3051 130.446 10.1157C130.644 9.91837 130.742 9.66578 130.742 9.35794C130.742 9.0501 130.644 8.80541 130.446 8.62386C130.249 8.44231 129.985 8.35154 129.653 8.35154H127.463V10.3999ZM133.802 15.7989V6.9781H139.663V8.3989H135.412V10.6603H139.426V12.0811H135.412V14.3781H139.663V15.7989H133.802ZM142.17 15.7989V8.3989H139.884V6.9781H146.041V8.3989H143.792V15.7989H142.17ZM145.475 15.7989L148.518 6.9781H150.602L153.645 15.7989H151.892L151.265 13.9045H147.855L147.216 15.7989H145.475ZM148.317 12.4837H150.803L149.335 8.09106H149.785L148.317 12.4837Z" fill="#9CFB51"/>
</svg>
