<svg preserveAspectRatio="none" width="100%" height="100%" overflow="visible" style="display: block;" viewBox="0 0 80 25.656" fill="none" xmlns="http://www.w3.org/2000/svg">
<path id="canva" d="M79.444 17.536C79.308 17.536 79.184 17.624 79.12 17.808C78.3 20.148 77.192 21.54 76.28 21.54C75.756 21.54 75.544 20.956 75.544 20.04C75.544 17.748 76.916 12.888 77.608 10.672C77.688 10.404 77.74 10.164 77.74 9.96C77.74 9.316 77.388 9 76.516 9C75.576 9 74.564 9.368 73.58 11.092C73.24 9.572 72.212 8.908 70.776 8.908C69.116 8.908 67.512 9.976 66.192 11.708C64.872 13.44 63.32 14.008 62.152 13.728C62.992 11.672 63.304 10.136 63.304 8.996C63.304 7.208 62.42 6.128 60.992 6.128C58.82 6.128 57.568 8.2 57.568 10.38C57.568 12.064 58.332 13.796 60.012 14.636C58.604 17.82 56.548 20.7 55.768 20.7C54.76 20.7 54.464 15.768 54.52 12.24C54.556 10.216 54.724 10.112 54.724 9.5C54.724 9.148 54.496 8.908 53.58 8.908C51.444 8.908 50.784 10.716 50.684 12.792C50.652 13.581 50.5285 14.3635 50.316 15.124C49.424 18.308 47.584 20.724 46.384 20.724C45.828 20.724 45.676 20.168 45.676 19.44C45.676 17.148 46.96 14.284 46.96 11.84C46.96 10.044 46.172 8.908 44.688 8.908C42.94 8.908 40.628 10.988 38.44 14.884C39.16 11.9 39.456 9.012 37.324 9.012C36.8616 9.01944 36.4076 9.13739 36 9.356C35.8631 9.41973 35.7486 9.52333 35.6715 9.65322C35.5944 9.78312 35.5583 9.93326 35.568 10.084C35.772 13.26 33.008 21.396 30.388 21.396C29.912 21.396 29.68 20.88 29.68 20.048C29.68 17.752 31.048 12.904 31.736 10.684C31.824 10.396 31.872 10.148 31.872 9.932C31.872 9.324 31.496 9.012 30.644 9.012C29.708 9.012 28.692 9.368 27.712 11.092C27.368 9.572 26.34 8.908 24.904 8.908C22.548 8.908 19.916 11.4 18.76 14.648C17.212 18.984 14.092 23.172 9.892 23.172C6.08 23.172 4.068 20 4.068 14.988C4.068 7.752 9.38 1.84 13.32 1.84C15.204 1.84 16.104 3.04 16.104 4.88C16.104 7.108 14.86 8.144 14.86 8.992C14.86 9.252 15.076 9.508 15.504 9.508C17.216 9.508 19.232 7.496 19.232 4.752C19.232 2.008 17.004 0 13.064 0C6.552 0 0 6.552 0 14.948C0 21.628 3.296 25.656 8.996 25.656C12.884 25.656 16.28 22.632 18.112 19.104C18.32 22.028 19.648 23.556 21.672 23.556C23.472 23.556 24.928 22.484 26.04 20.6C26.468 22.572 27.604 23.536 29.08 23.536C30.772 23.536 32.188 22.464 33.536 20.472C33.516 22.036 33.872 23.508 35.228 23.508C35.868 23.508 36.632 23.36 36.768 22.8C38.196 16.896 41.724 12.076 42.804 12.076C43.124 12.076 43.212 12.384 43.212 12.748C43.212 14.352 42.08 17.64 42.08 19.74C42.08 22.008 43.044 23.508 45.036 23.508C47.244 23.508 49.488 20.804 50.984 16.852C51.452 20.544 52.464 23.524 54.048 23.524C55.992 23.524 59.444 19.432 61.536 15.1C62.356 15.204 63.588 15.176 64.772 14.34C64.268 15.616 63.972 17.012 63.972 18.408C63.972 22.428 65.892 23.556 67.544 23.556C69.34 23.556 70.796 22.484 71.912 20.6C72.28 22.3 73.22 23.532 74.948 23.532C77.652 23.532 80 20.768 80 18.5C80 17.9 79.744 17.536 79.444 17.536ZM23.32 21.328C22.228 21.328 21.8 20.228 21.8 18.588C21.8 15.74 23.748 10.984 25.808 10.984C26.708 10.984 27.048 12.044 27.048 13.34C27.048 16.232 25.196 21.328 23.32 21.328ZM60.724 12.828C60.072 12.052 59.836 10.996 59.836 10.056C59.836 8.896 60.26 7.916 60.768 7.916C61.276 7.916 61.432 8.416 61.432 9.112C61.432 10.276 61.016 11.976 60.724 12.828ZM69.192 21.328C68.1 21.328 67.672 20.064 67.672 18.588C67.672 15.84 69.62 10.984 71.696 10.984C72.596 10.984 72.916 12.036 72.916 13.34C72.916 16.232 71.096 21.328 69.192 21.328Z" fill="var(--fill-0, white)"/>
</svg>
