<svg preserveAspectRatio="none" width="100%" height="100%" overflow="visible" style="display: block;" viewBox="0 0 127.728 18.862" fill="none" xmlns="http://www.w3.org/2000/svg">
<path id="freepik" d="M33.6755 11.9119C33.6626 11.8988 33.6539 11.8822 33.6504 11.8642C33.6469 11.8462 33.6489 11.8275 33.656 11.8106C33.6631 11.7937 33.6751 11.7793 33.6904 11.7691C33.7057 11.759 33.7237 11.7536 33.742 11.7537H34.1195C37.1919 11.4409 39.7591 9.45618 39.7591 5.93438C39.7591 1.87685 36.4854 0.00179775 32.7353 0.00179775H15.1712C15.0578 0.00179775 14.9489 0.0468763 14.8687 0.127117C14.7884 0.207357 14.7434 0.316186 14.7434 0.429663V18.4342C14.7434 18.5476 14.7884 18.6565 14.8687 18.7367C14.9489 18.8169 15.0578 18.862 15.1712 18.862H20.7802C20.8937 18.862 21.0025 18.8169 21.0828 18.7367C21.163 18.6565 21.2081 18.5476 21.2081 18.4342V12.6849C21.2081 12.5715 21.2532 12.4626 21.3334 12.3824C21.4136 12.3022 21.5225 12.2571 21.636 12.2571H25.2818C25.787 12.2571 26.2688 12.4746 26.6049 12.8521L31.7987 18.7164C31.9101 18.7667 32.0072 18.8099 32.1187 18.8602H39.5218C39.9011 18.8602 40.0917 18.4036 39.8256 18.1321L33.6773 11.9119H33.6755ZM31.3366 8.03236H21.6342C21.5207 8.03236 21.4119 7.98728 21.3316 7.90704C21.2514 7.8268 21.2063 7.71797 21.2063 7.60449V4.8773C21.2063 4.76383 21.2514 4.655 21.3316 4.57476C21.4119 4.49452 21.5207 4.44944 21.6342 4.44944H31.1964C32.5681 4.44944 33.4634 5.1218 33.4634 6.18427C33.4634 7.41573 32.6238 8.03056 31.3366 8.03056V8.03236ZM104.568 0.00179775H98.9609C98.8474 0.00179775 98.7386 0.0468763 98.6583 0.127117C98.5781 0.207357 98.533 0.316186 98.533 0.429663V12.3811C98.533 12.4946 98.5781 12.6034 98.6583 12.6837C98.7386 12.7639 98.8474 12.809 98.9609 12.809H104.568C104.682 12.809 104.79 12.7639 104.871 12.6837C104.951 12.6034 104.996 12.4946 104.996 12.3811V0.429663C104.996 0.316186 104.951 0.207357 104.871 0.127117C104.79 0.0468763 104.682 0.00179775 104.568 0.00179775ZM104.568 15.3546H98.9609C98.8474 15.3546 98.7386 15.3997 98.6583 15.4799C98.5781 15.5602 98.533 15.669 98.533 15.7825V18.4342C98.533 18.5476 98.5781 18.6565 98.6583 18.7367C98.7386 18.8169 98.8474 18.862 98.9609 18.862H104.568C104.682 18.862 104.79 18.8169 104.871 18.7367C104.951 18.6565 104.996 18.5476 104.996 18.4342V15.7825C104.996 15.669 104.951 15.5602 104.871 15.4799C104.79 15.3997 104.682 15.3546 104.568 15.3546ZM127.664 18.2975L120.448 8.74247C120.286 8.52854 120.3 8.23191 120.48 8.03416L127.295 0.559101C127.489 0.345169 127.338 0.00179775 127.049 0.00179775H121.152C120.996 0.00179775 120.847 0.0683146 120.742 0.183371L114.163 7.41573H114.159C114.148 7.42832 114.135 7.43852 114.12 7.44564C114.106 7.45277 114.089 7.45667 114.073 7.45708H113.835C113.773 7.45708 113.724 7.40674 113.722 7.34562V0.395506C113.722 0.177978 113.546 0.00179775 113.329 0.00179775H107.937C107.72 0.00179775 107.543 0.177978 107.543 0.395506V18.4449C107.543 18.6445 107.705 18.8063 107.905 18.8063H113.359C113.559 18.8063 113.72 18.6445 113.72 18.4449V15.0849C113.72 14.9447 113.774 14.8081 113.87 14.7056L116.264 12.1438C116.264 12.1438 116.286 12.1115 116.334 12.1115H116.658C116.698 12.1115 116.721 12.1438 116.721 12.1438L121.546 18.5834C121.65 18.7236 121.816 18.8063 121.99 18.8063H127.409C127.671 18.8063 127.822 18.5061 127.662 18.2957L127.664 18.2975ZM48.4836 4.31101H53.9685C54.082 4.31101 54.1908 4.26593 54.2711 4.18569C54.3513 4.10545 54.3964 3.99662 54.3964 3.88315V0.427865C54.3964 0.314388 54.3513 0.205559 54.2711 0.125319C54.1908 0.0450785 54.082 0 53.9685 0H42.6229C42.5094 0 42.4006 0.0450785 42.3204 0.125319C42.2401 0.205559 42.1951 0.314388 42.1951 0.427865V18.4324C42.1951 18.5458 42.2401 18.6547 42.3204 18.7349C42.4006 18.8151 42.5094 18.8602 42.6229 18.8602H53.9685C54.082 18.8602 54.1908 18.8151 54.2711 18.7349C54.3513 18.6547 54.3964 18.5458 54.3964 18.4324V14.9771C54.3964 14.8636 54.3513 14.7548 54.2711 14.6745C54.1908 14.5943 54.082 14.5492 53.9685 14.5492H48.444C48.3306 14.5492 48.2217 14.5041 48.1415 14.4239C48.0613 14.3437 48.0162 14.2348 48.0162 14.1213V11.8813C48.0162 11.6243 48.2247 11.4139 48.4836 11.4139H53.9685C54.0247 11.4139 54.0804 11.4029 54.1323 11.3814C54.1842 11.3599 54.2314 11.3283 54.2711 11.2886C54.3108 11.2489 54.3423 11.2017 54.3638 11.1498C54.3853 11.0979 54.3964 11.0423 54.3964 10.9861V7.61528C54.3964 7.5018 54.3513 7.39297 54.2711 7.31273C54.1908 7.23249 54.082 7.18742 53.9685 7.18742H48.4836C48.2265 7.18742 48.0162 6.97888 48.0162 6.72V4.77124C48.0162 4.51416 48.2247 4.30382 48.4836 4.30382V4.31101ZM63.2288 4.31101H68.7137C68.8272 4.31101 68.936 4.26593 69.0163 4.18569C69.0965 4.10545 69.1416 3.99662 69.1416 3.88315V0.427865C69.1416 0.314388 69.0965 0.205559 69.0163 0.125319C68.936 0.0450785 68.8272 0 68.7137 0H57.3681C57.2546 0 57.1458 0.0450785 57.0655 0.125319C56.9853 0.205559 56.9402 0.314388 56.9402 0.427865V18.4324C56.9402 18.5458 56.9853 18.6547 57.0655 18.7349C57.1458 18.8151 57.2546 18.8602 57.3681 18.8602H68.7137C68.8272 18.8602 68.936 18.8151 69.0163 18.7349C69.0965 18.6547 69.1416 18.5458 69.1416 18.4324V14.9771C69.1416 14.8636 69.0965 14.7548 69.0163 14.6745C68.936 14.5943 68.8272 14.5492 68.7137 14.5492H63.1892C63.0757 14.5492 62.9669 14.5041 62.8867 14.4239C62.8064 14.3437 62.7613 14.2348 62.7613 14.1213V11.8813C62.7613 11.6243 62.9699 11.4139 63.2288 11.4139H68.7137C68.7699 11.4139 68.8255 11.4029 68.8774 11.3814C68.9294 11.3599 68.9765 11.3283 69.0163 11.2886C69.056 11.2489 69.0875 11.2017 69.109 11.1498C69.1305 11.0979 69.1416 11.0423 69.1416 10.9861V7.61528C69.1416 7.5018 69.0965 7.39297 69.0163 7.31273C68.936 7.23249 68.8272 7.18742 68.7137 7.18742H63.2288C62.9717 7.18742 62.7613 6.97888 62.7613 6.72V4.77124C62.7613 4.51416 62.9699 4.30382 63.2288 4.30382V4.31101ZM6.28854 4.31101H11.7735C11.887 4.31101 11.9958 4.26593 12.076 4.18569C12.1563 4.10545 12.2013 3.99662 12.2013 3.88315V0.427865C12.2013 0.314388 12.1563 0.205559 12.076 0.125319C11.9958 0.0450785 11.887 0 11.7735 0H0.427865C0.314388 0 0.205559 0.0450785 0.125319 0.125319C0.0450785 0.205559 0 0.314388 0 0.427865V18.4324C0 18.5458 0.0450785 18.6547 0.125319 18.7349C0.205559 18.8151 0.314388 18.8602 0.427865 18.8602H5.39146C5.50494 18.8602 5.61377 18.8151 5.69401 18.7349C5.77425 18.6547 5.81933 18.5458 5.81933 18.4324L5.82292 11.8831C5.82292 11.6261 6.03146 11.4157 6.29034 11.4157H11.7753C11.8888 11.4157 11.9976 11.3707 12.0778 11.2904C12.1581 11.2102 12.2031 11.1013 12.2031 10.9879V7.61708C12.2031 7.5036 12.1581 7.39477 12.0778 7.31453C11.9976 7.23429 11.8888 7.18921 11.7753 7.18921H6.29034C6.03326 7.18921 5.82292 6.98067 5.82292 6.7218V4.77303C5.82292 4.51595 6.03146 4.30562 6.29034 4.30562L6.28854 4.31101ZM89.0966 0.00179775H72.1151C72.0016 0.00179775 71.8927 0.0468763 71.8125 0.127117C71.7323 0.207357 71.6872 0.316186 71.6872 0.429663V18.4342C71.6872 18.5476 71.7323 18.6565 71.8125 18.7367C71.8927 18.8169 72.0016 18.862 72.1151 18.862H77.724C77.8375 18.862 77.9463 18.8169 78.0266 18.7367C78.1068 18.6565 78.1519 18.5476 78.1519 18.4342V12.4746C78.1519 12.3542 78.249 12.2571 78.3694 12.2571H89.1254C93.4364 12.2571 96.7029 10.0099 96.7029 6.04225C96.7029 2.07461 93.4364 0.00179775 89.0984 0.00179775H89.0966ZM88.2804 8.03236H78.578C78.4645 8.03236 78.3557 7.98728 78.2754 7.90704C78.1952 7.8268 78.1501 7.71797 78.1501 7.60449V4.8773C78.1501 4.8212 78.1612 4.76565 78.1827 4.71384C78.2042 4.66203 78.2358 4.61498 78.2755 4.57539C78.3153 4.5358 78.3625 4.50446 78.4144 4.48315C78.4663 4.46185 78.5219 4.451 78.578 4.45124H88.1402C89.5119 4.45124 90.4072 5.1218 90.4072 6.18607C90.4072 7.41753 89.5676 8.03236 88.2804 8.03236Z" fill="var(--fill-0, white)"/>
</svg>
