<svg preserveAspectRatio="none" width="100%" height="100%" overflow="visible" style="display: block;" viewBox="0 0 130.499 25.5997" fill="none" xmlns="http://www.w3.org/2000/svg">
<path id="higgsfield" d="M61.873 6.64785C61.8925 8.81493 61.3302 9.50553 59.0801 9.71914C60.644 10.7162 61.3664 12.1479 60.916 14.0268C60.3949 16.2049 58.1195 16.9663 56.1143 16.973C55.4777 16.9751 54.4778 16.763 53.9404 17.0629C53.4792 17.3573 53.5556 17.7235 53.8066 18.1195C55.0082 18.625 58.1887 18.0502 59.7891 18.4848C61.8902 18.7755 62.4861 20.6967 62.0645 22.6479C61.2756 26.2918 52.025 26.4694 50.6455 23.6918C50.3642 23.121 50.3197 22.4613 50.5225 21.8578C50.8409 20.9269 51.5715 20.4177 52.4082 20.0023C49.7455 18.929 50.6095 16.8096 53.1143 16.265C51.7638 15.416 50.9341 14.4369 51.0361 12.7602C51.2411 9.50257 54.5046 8.83057 57.1875 8.96328C58.9712 9.05159 59.0055 8.03003 59.0801 6.6498L61.873 6.64785ZM74.7139 6.64883C74.7347 8.87716 74.1511 9.45698 71.9141 9.72891C73.4022 10.5759 74.0234 11.8871 73.8281 13.5785C73.5481 15.9988 71.2946 16.902 69.124 16.973C68.5344 17.0475 67.7295 16.8142 67.166 16.9135C66.2979 17.0666 66.2895 17.6931 66.7715 18.2406C68.1523 18.3399 71.9638 18.1983 72.8906 18.5668C73.5695 18.6101 74.4583 19.3975 74.7451 19.9965C75.1044 20.7478 75.1754 21.9203 74.8887 22.6957C73.6674 25.9955 68.2558 25.9231 65.4346 25.1361C64.6798 24.9242 63.8033 24.3429 63.4561 23.6283C63.1821 23.0773 63.1463 22.4373 63.3564 21.8588C63.6889 20.9274 64.4028 20.4121 65.2529 20.0033C62.5962 18.9478 63.4303 16.7899 65.9541 16.268C64.5908 15.4447 63.7879 14.4169 63.8691 12.7758C64.0193 9.76027 67.009 8.85036 69.5703 8.9623C71.6248 9.052 71.8406 8.52088 71.9111 6.65078L74.7139 6.64883ZM59.1904 22.5609C60.6886 20.159 56.6913 20.577 55.7021 20.6107C54.8729 20.6188 54.125 20.5289 53.4951 21.1713C52.9759 21.7021 53.1361 22.4929 53.665 22.9359C54.4601 23.6029 55.8818 23.5894 56.8623 23.5092L56.8877 23.5072C57.633 23.4248 58.7738 23.2283 59.1904 22.5609ZM71.9854 21.0004C71.1169 20.3692 69.6756 20.5708 68.6436 20.6078C67.9124 20.6165 66.9929 20.5066 66.4746 21.0434C66.1954 21.3373 66.0449 21.7317 66.0576 22.1371C66.1018 23.6189 68.6514 23.5785 69.6826 23.5121L69.7148 23.5102C70.5769 23.4102 71.4504 23.2842 72.0312 22.5609C72.4127 22.0848 72.5314 21.3974 71.9854 21.0004ZM3.19141 2.81582C5.13423 1.30939 6.44125 -0.439478 9.23242 0.0999988C11.0599 0.453302 11.7505 2.01843 11.418 3.74746C11.0841 5.28316 9.91781 6.28927 8.79688 7.28945C7.41309 8.52392 3.587 10.1649 4.90332 12.5014C5.55402 13.5342 6.74648 13.4562 7.61816 12.8119C10.7572 10.4906 12.8942 4.18227 17.584 4.83047C20.2972 5.20574 21.5909 8.37822 21.7783 10.8021L23.7607 10.8061V13.1986H21.7939C21.5682 15.8346 20.997 18.6351 18.8857 20.435C17.286 21.7986 15.4254 21.9385 13.6387 20.9037L13.5938 20.8627C11.4115 18.9524 11.9787 16.6961 13.5166 14.5658C15.0862 12.3917 17.0664 11.2367 19.6885 10.7289C19.7314 8.82838 18.4539 7.28426 16.458 7.54629C13.4916 7.93601 11.6914 11.6378 9.85938 13.7455C8.11497 15.7524 6.28903 17.3301 3.55957 15.723C2.56014 15.1272 1.95662 13.7979 1.84863 12.6635C1.7151 11.2595 2.3075 10.2336 3.19727 9.19082L3.42285 8.93301C3.98179 8.40242 4.55087 7.90469 5.17285 7.44863C6.42759 6.52855 9.14696 5.11742 9.19531 3.33926C9.2053 2.96868 9.01902 2.59587 8.76172 2.3334C8.57644 2.14447 8.34763 2.03737 8.08105 2.03945C5.66883 2.05866 4.32127 7.13785 0.000976562 5.57754L0 3.33437C1.16749 3.56701 2.21102 3.57593 3.19141 2.81582ZM107.457 8.87246C109.481 8.86709 111.305 9.72849 112.093 11.6811C112.636 13.0265 112.605 14.2122 112.598 15.6264L104.639 15.6254C105.001 18.9232 108.745 19.6982 110.124 16.6439L110.961 17.0609L112.393 17.7855C111.587 19.4421 110.431 20.469 108.531 20.8012C102.633 21.8321 99.975 15.5737 102.855 11.0463C103.65 9.7983 105.104 9.13662 106.567 8.90664C106.839 8.87125 107.184 8.8732 107.457 8.87246ZM76.0938 13.683C74.5949 9.50555 79.4142 8.07376 82.5713 9.23672C83.9695 9.75195 84.6655 10.492 85.2666 11.768L82.6914 12.6713C82.0707 11.2389 80.3993 10.4894 79.0664 11.2602C78.0037 11.8745 78.8795 13.1116 79.8652 13.3822C81.4596 13.82 83.8961 14.1033 84.833 15.5951C85.6856 16.9528 85.2293 19.1447 83.8174 20.0111L83.6523 20.1654C81.7357 21.0773 79.4042 21.2101 77.4561 20.227C76.3199 19.6534 75.7778 18.7635 75.4219 17.5736L78.0879 16.7982C78.1456 16.9942 78.2393 17.2407 78.3232 17.4271C78.5663 17.9637 79.0116 18.3822 79.5635 18.5893C80.5521 18.9598 82.9286 18.7815 82.3779 17.0668C82.0509 16.0533 79.3274 15.8103 78.4336 15.4467C77.5929 15.1403 76.4264 14.6096 76.0938 13.683ZM130.498 3.78945L130.499 20.517L127.667 20.5189V19.0209C126.221 20.9186 124.312 21.3279 122.161 20.3236C121.574 19.9969 121.082 19.6187 120.66 19.0922C118.73 16.6817 118.863 11.9012 121.335 9.91348C122.278 9.16711 123.474 8.81682 124.67 8.93789C126.01 9.08436 126.845 9.78589 127.65 10.7973L127.653 3.78848L130.498 3.78945ZM88.7568 6.43984C89.0228 4.08213 90.8557 3.23712 93.0518 3.50527C93.5566 3.56701 94.0524 3.6911 94.5264 3.87539L94.0361 6.16348C91.004 5.38339 91.5414 7.03788 91.5273 9.26406L94.2363 9.26894V11.5619H91.5791C91.5791 14.354 91.4905 17.6493 91.5879 20.3979C91.2694 20.6516 89.2162 20.5201 88.6992 20.517V11.5629L86.4521 11.5639V9.26894L88.7012 9.26797C88.6958 8.58029 88.6541 7.06624 88.7568 6.43984ZM42.9795 3.78945V15.0697L42.9746 18.6928C42.9749 19.1404 43.0943 20.1821 42.8662 20.5014L42.6504 20.5189L39.9932 20.515L39.9951 13.3178L32.3486 13.3168V20.517L29.3467 20.5189V3.78945L32.3496 3.78848L32.3486 10.5541L39.9941 10.5551L39.9961 3.78848L42.9795 3.78945ZM117.552 3.78945C117.463 9.27871 117.548 15.0097 117.548 20.5189L114.688 20.515L114.69 3.78945H117.552ZM48.5986 20.517L45.7197 20.518L45.7207 8.96133L48.6006 8.95937L48.5986 20.517ZM99.4023 20.5141L96.5332 20.517V8.95351H99.4014L99.4023 20.5141ZM19.5117 13.1342C18.8502 13.2935 18.5148 13.4298 17.8828 13.6889C16.468 14.2691 13.432 17.2977 15.1074 18.8559C17.7814 20.4517 19.6378 15.2725 19.5918 13.2172L19.5117 13.1342ZM127.284 16.9105C128.26 14.4061 127.679 10.9062 124.328 11.3266C123.57 11.5506 123.104 11.8351 122.715 12.5561C121.578 14.6617 122.386 19.2088 125.597 18.432C126.34 18.1674 126.994 17.655 127.284 16.9105ZM57.3291 11.183C56.9127 10.847 56.1675 10.8097 55.6377 10.8471C52.9925 11.3835 53.2647 15.3614 56.5293 15.101C58.5413 14.7323 58.7837 12.3575 57.3291 11.183ZM70.7598 14.2719C71.6678 12.2421 70.4879 10.6039 68.373 10.8627C65.8468 11.4663 66.1068 15.4303 69.4531 15.0912C69.9492 14.9745 70.5439 14.7528 70.7598 14.2719ZM107.08 10.9955C105.401 11.218 104.996 12.1282 104.715 13.6879L107.408 13.6889L109.661 13.6879C109.45 12.0563 108.969 10.9175 107.08 10.9955ZM97.7412 3.81875C98.6907 3.68588 99.5673 4.35042 99.6963 5.30019C99.8258 6.25004 99.158 7.12409 98.207 7.24941C97.2622 7.37388 96.3949 6.71041 96.2666 5.76601C96.1386 4.82169 96.7971 3.95089 97.7412 3.81875ZM46.8652 3.81875C47.4775 3.70949 48.1015 3.93775 48.499 4.41641C48.8972 4.89529 49.0065 5.55082 48.7871 6.1332C48.5669 6.71561 48.0516 7.13553 47.4365 7.23183C46.4997 7.37844 45.6191 6.74338 45.4619 5.80801C45.3055 4.87273 45.9311 3.9855 46.8652 3.81875Z" fill="var(--fill-0, white)"/>
</svg>
