<svg preserveAspectRatio="none" width="100%" height="100%" overflow="visible" style="display: block;" viewBox="0 0 30 30" fill="none" xmlns="http://www.w3.org/2000/svg">
<g id="Frame" clip-path="url(#clip0_0_34)">
<path id="Vector" d="M13.4389 30.4693C13.3919 30.3926 13.4193 30.33 13.5004 30.33C13.5819 30.33 13.6481 30.3926 13.6481 30.4693C13.6481 30.5459 13.6204 30.6085 13.5867 30.6085C13.553 30.6085 13.4867 30.5456 13.4389 30.4693ZM7.34185 28.5518C5.43778 28.5185 5.00741 28.4748 5.00741 28.3137C5.00741 28.2048 5.14667 28.0181 5.31704 27.8989C5.79889 27.5611 5.35815 27.6278 3.95333 28.1044C3.1663 28.3719 2.4963 28.513 2.13407 28.4878L1.56 28.4485L2.96185 27.2289L4.36296 26.0093L8.20407 25.9759C12.9819 25.9344 14.2004 25.9781 14.5541 26.2056C14.7163 26.3104 15.5019 26.4181 16.4356 26.4648C18.1159 26.5481 18.523 26.6318 18.5304 26.8956C18.533 26.983 18.6226 27.1704 18.73 27.3118C18.9122 27.5526 18.943 27.5337 19.2067 27.017C19.3615 26.7133 19.6559 26.2656 19.8607 26.0222C20.317 25.48 20.2274 25.3467 19.6148 25.6563C19.19 25.8711 17.2815 26.1804 17.1411 26.057C17.1078 26.0278 17.9933 25.08 19.1093 23.9511C20.9644 22.0741 21.1541 21.8352 21.3219 21.1663C21.423 20.7641 21.5644 20.4348 21.6367 20.4348C21.8763 20.4348 21.6256 19.3367 21.2922 18.9263C20.47 17.9141 16.3556 13.5989 16.1511 13.5341C16.0252 13.4941 15.7844 13.3156 15.617 13.1367C15.3604 12.8633 15.2685 12.4593 15.0411 10.6033C14.8922 9.38852 14.8 8.36556 14.8359 8.32926C14.8719 8.29296 17.2211 10.6107 20.0563 13.4781C25.5348 19.0204 25.6081 19.0952 26.7422 20.3252L27.4763 21.1215L26.9433 21.6241C26.65 21.9004 26.3452 22.1693 26.2659 22.2215C26.1867 22.2733 26.0537 22.4415 25.9711 22.5948C25.8885 22.7481 25.5433 23.0185 25.2044 23.1952C24.823 23.3944 24.4096 23.7789 24.1181 24.2056C23.8596 24.5844 23.5607 24.8944 23.4541 24.8944C23.3474 24.8944 23.1567 25.1111 23.0304 25.3763C22.9041 25.6411 22.7519 25.8281 22.6926 25.7915C22.6333 25.7548 22.5341 25.8093 22.4719 25.9122C22.4096 26.0156 22.157 26.2463 21.9111 26.4252C21.6652 26.6041 21.493 26.7981 21.5289 26.8559C21.5648 26.9137 21.213 27.3004 20.7474 27.7152L19.9007 28.4696L17.707 28.4967L15.5133 28.5233L14.6756 27.7652C14.0589 27.2074 13.7852 27.0411 13.6385 27.1363C13.4807 27.2381 13.5844 27.3956 14.1359 27.89L14.8326 28.5148L12.4633 28.5019C11.1604 28.4948 10.0004 28.5122 9.88519 28.5407C9.77037 28.5689 8.62593 28.5741 7.34185 28.5518ZM22.707 26.5141C22.707 26.4852 22.817 26.3756 22.9511 26.2704C23.1719 26.097 23.177 26.1019 23.0037 26.323C22.8215 26.5552 22.7074 26.6289 22.7074 26.5141M9.21481 25.7222C9.24815 25.6218 9.35815 25.5119 9.45889 25.4785C9.56333 25.4437 9.61556 25.4959 9.58074 25.6007C9.54741 25.7007 9.43741 25.8107 9.33667 25.8444C9.23222 25.8793 9.18037 25.827 9.21481 25.7222ZM16.2274 25.1752C16.1785 25.0963 16.2348 25.073 16.3585 25.1204C16.6 25.213 16.6441 25.313 16.4437 25.313C16.3715 25.313 16.2741 25.2511 16.2274 25.1752ZM11.7585 22.07C7.86222 18.0319 4.35852 14.2715 3.89148 13.6263C3.67296 13.3248 3.34815 12.9781 3.17037 12.8567C2.99259 12.7352 2.39037 12.18 1.83259 11.6226L0.818149 10.6093L1.76259 9.7137C2.28259 9.22111 3.61704 7.95593 4.72852 6.90148C6.7763 4.95926 8.5563 3.43148 8.77222 3.43148C8.83741 3.43148 8.93148 3.30407 8.98074 3.14852C9.03 2.99296 9.38889 2.56926 9.77778 2.20741C10.1667 1.84556 10.5648 1.47148 10.6626 1.37556C10.8011 1.24 12.877 1.20185 20.0748 1.20333C25.1537 1.20444 29.2507 1.2563 29.1785 1.31815C28.887 1.57148 26.0874 3.55556 25.6341 3.83111C25.1752 4.10926 24.96 4.12741 22.0367 4.12741C19.7367 4.12815 18.9533 4.08667 19.0263 3.96852C19.097 3.85407 19.0107 3.83963 18.7207 3.91741C18.4985 3.97741 16.9881 4.06482 15.3644 4.11185L12.4119 4.19778L11.4 5.2837C10.8437 5.88074 10.367 6.50778 10.3415 6.67704C10.2833 7.05852 9.65259 8.03037 9.46333 8.03037C9.38667 8.03037 9.4863 7.7737 9.68445 7.46C9.88259 7.1463 10.0152 6.86 9.97926 6.8237C9.90667 6.75111 6.22111 10.4704 6.14222 10.6959C6.06815 10.9059 6.68074 11.5056 6.88778 11.4259C6.98593 11.3885 7.19889 11.5437 7.36074 11.7715C7.53852 12.0207 7.75259 12.1663 7.89926 12.1374C8.68222 11.9833 9.24222 11.9541 9.02704 12.0781C8.88407 12.1604 8.8237 12.317 8.86889 12.49C8.92 12.6841 8.87333 12.7689 8.71704 12.7689C8.33185 12.7689 8.45889 13.0385 9.47111 14.3674C10.0096 15.0748 10.4767 15.7885 10.5081 15.9533C10.6011 16.4359 10.9526 16.8559 11.5785 17.2319C12.1952 17.6022 12.4222 17.9256 12.0652 17.9256C11.7763 17.9256 12.857 20.0952 13.2504 20.3059C13.6844 20.5381 13.6867 20.3907 13.2581 19.7948C12.4915 18.7289 12.6667 18.8522 14.297 20.5278C15.9089 22.1837 15.9648 22.2259 16.6793 22.3178C17.5093 22.4241 17.627 22.5893 16.9581 22.7085C16.0359 22.873 13.1578 23.3552 13.0826 23.3581C13.04 23.3596 12.4441 22.78 11.7585 22.0693M12.9533 16.8689C12.9544 16.4152 13.02 15.9504 13.0993 15.8352C13.2004 15.6878 13.2152 15.9148 13.1496 16.6019C13.0322 17.8278 12.9507 17.9393 12.9533 16.8685M24.8089 17.0522C24.4804 16.2893 24.5822 16.1996 25.09 16.8052C25.5541 17.3589 25.5759 17.4459 25.2789 17.56C25.1233 17.6196 24.9922 17.4778 24.8089 17.0522ZM3.96185 16.8752C3.73222 16.77 3.63778 16.6833 3.75296 16.6826C3.86778 16.6819 4.11889 16.7707 4.31037 16.8804C4.75111 17.1322 4.51556 17.1285 3.96222 16.8752M17.1356 16.8837C17.0256 16.7511 17.0152 16.6715 17.1074 16.6715C17.2759 16.6715 17.4722 16.9356 17.3756 17.0322C17.3404 17.0674 17.2326 17.0007 17.1356 16.8841M21.5048 13.5493C21.5519 13.1585 21.5907 12.6981 21.5911 12.5256C21.5944 11.7196 22.1493 12.53 22.2363 13.4678C22.2967 14.1204 22.2915 14.1311 21.8585 14.1948L21.4193 14.2593L21.5048 13.5493ZM13.5019 10.797C12.7115 9.9363 12.1378 9.20815 12.2278 9.17815C12.4107 9.11704 14.3204 9.39296 14.5052 9.50704C14.5707 9.54741 14.6237 9.73667 14.6237 9.92778C14.6237 10.1189 14.7241 10.7156 14.8467 11.2537C14.9689 11.7915 15.0396 12.2607 15.0041 12.2963C14.9685 12.3319 14.2926 11.6574 13.5019 10.7967M13.3719 8.14333C13.373 8.04296 13.4348 7.86667 13.5089 7.75185C13.6189 7.58148 13.6444 7.6 13.6463 7.84815C13.6474 8.01593 13.5859 8.19222 13.5093 8.23963C13.4326 8.28704 13.3707 8.24333 13.3719 8.14333ZM13.2304 5.5137C13.2304 5.43222 13.2933 5.40482 13.3696 5.45222C13.4463 5.49963 13.5093 5.56593 13.5093 5.59963C13.5093 5.63333 13.4463 5.66111 13.3696 5.66111C13.293 5.66111 13.2304 5.59444 13.2304 5.5137ZM5.77259 4.27556C6.0763 3.93296 6.52963 3.65259 6.62519 3.74815C6.65852 3.78148 6.41778 3.98407 6.09037 4.19852C5.57704 4.53444 5.53333 4.54519 5.77259 4.27556ZM6.87593 3.17222C7.16 2.85296 7.23741 2.81148 7.23741 2.97963C7.23741 3.03778 7.09667 3.17222 6.92407 3.27815C6.61148 3.47 6.61148 3.46963 6.87593 3.17222ZM11.14 0.504445C11.14 0.342963 12.42 0.33926 13.4393 0.498149C14.0263 0.58963 13.8996 0.60926 12.6381 0.625186C11.7196 0.636667 11.14 0.59 11.14 0.504445ZM14.65 0.153334C14.7311 0.0722227 16.9444 -0.333333 17.2719 -0.327037C17.8004 -0.316666 16.9937 -0.0677773 15.9719 0.0744449C14.7437 0.245556 14.5459 0.257038 14.6496 0.153704" fill="var(--fill-0, white)"/>
</g>
<defs>
<clipPath id="clip0_0_34">
<rect width="30" height="30" fill="white"/>
</clipPath>
</defs>
</svg>
