<svg preserveAspectRatio="none" width="100%" height="100%" overflow="visible" style="display: block;" viewBox="0 0 52.6247 46.8669" fill="none" xmlns="http://www.w3.org/2000/svg">
<g id="Group 39921">
<path id="Vector" d="M25.7556 3.50418C26.5185 3.36178 29.7669 3.93673 30.6564 4.07711C36.059 4.87454 41.4217 5.92313 46.7264 7.21962C52.6489 8.69077 53.4758 8.99781 51.9676 15.1127L50.8048 19.6467L47.147 33.7786C46.8626 34.8784 46.3341 37.1097 45.734 38.0426C45.1839 38.8973 43.2607 38.7616 42.2865 38.4727C42.2834 38.5756 42.2759 38.6784 42.2648 38.7813C42.2134 39.2553 42.0848 39.6022 41.9799 40.0565C41.7888 40.9395 41.6012 42.0009 40.8463 42.597C40.091 43.193 38.4799 42.9394 37.5571 42.839C37.3125 43.9161 37.2112 45.4919 36.4195 46.2831C36.0948 46.6234 35.3747 46.8957 34.9017 46.8644C33.2508 46.7555 31.5988 46.5327 29.9469 46.4026C29.0135 46.3289 28.062 46.1444 27.1266 46.0612L16.8605 45.0733C15.225 44.915 13.6045 44.7809 11.959 44.5358C10.2063 44.2741 6.8711 44.0386 5.61547 42.7114C4.32281 41.3449 4.92766 38.3643 5.04137 36.6332C5.1626 34.7871 5.31886 32.7903 5.5312 30.9386C5.6256 30.0285 5.60931 29.1143 5.69373 28.2106C5.97192 25.2315 6.16101 22.2566 6.248 19.2664C6.5983 18.568 7.74517 18.5645 7.81864 19.1988C7.986 20.6443 7.87421 22.434 7.77704 23.8819L7.3977 29.1022C7.36351 29.5862 7.34132 30.0723 7.30668 30.5559C7.0658 33.9178 6.59941 37.2716 6.54858 40.6465C6.54475 40.9007 6.76415 41.4089 6.85976 41.6515C8.65585 42.4583 10.8654 42.6731 12.8078 42.896L17.4518 43.3992L28.1286 44.4405C29.7548 44.5978 31.3366 44.8484 32.9724 44.9417C33.7399 44.9856 34.4287 45.1576 35.2254 45.0895C35.5376 44.6019 35.8779 42.0993 35.9904 41.4619L36.9792 35.6317L38.5142 26.6031C38.8379 24.6521 39.2075 22.7496 39.4238 20.7721C39.5373 19.7322 39.6871 19.3268 38.9856 18.4221C36.7236 17.8113 34.8412 17.5224 32.5574 17.1548C29.0493 16.6116 25.5297 16.1473 22.0012 15.7623C21.4773 15.7063 20.952 15.7084 20.4315 15.662C18.8043 15.5167 17.2019 15.295 15.5665 15.257C14.5336 15.2217 13.5045 15.2002 12.4727 15.1471C11.6738 15.1061 11.1603 14.3749 11.7165 13.748C11.8639 13.583 12.0629 13.4731 12.2811 13.4362C12.4727 13.4041 13.2167 13.4777 13.4798 13.4859C14.5815 13.5197 15.6885 13.6102 16.7916 13.5724C16.7974 13.4824 16.8042 13.3972 16.8147 13.3075C17.3149 9.05025 18.0997 8.19081 22.5154 8.8481C23.0881 6.77724 22.7873 3.66121 25.7556 3.50418ZM18.4641 13.7376C19.3871 13.7117 20.6248 13.9422 21.5536 14.0424C21.9994 14.0905 22.4367 14.0844 22.9086 14.1369C26.3697 14.5155 29.8208 14.9848 33.2573 15.5441C35.1654 15.8404 37.0987 16.1045 38.9695 16.6017C41.581 17.2958 41.3027 19.9605 40.9653 22.0542C40.1061 28.4522 38.8828 34.7901 37.8102 41.1558C38.2081 41.2557 39.4899 41.3701 39.8484 41.2294C39.9997 41.0464 40.0047 40.8573 40.032 40.6173C40.509 38.8357 40.8362 37.1445 41.2386 35.365L43.243 26.1664C43.9661 22.7488 44.8224 19.2104 45.2984 15.7375C45.3644 15.257 45.3054 14.758 45.0861 14.3179C44.0337 13.6525 41.2255 13.2833 39.918 13.0265C35.8149 12.2299 31.6841 11.5808 27.5341 11.0807C25.6224 10.8439 23.6412 10.6452 21.7212 10.4842C21.0647 10.4291 20.3552 10.3614 19.7015 10.4116C19.4195 10.5005 19.1272 10.5966 19.0089 10.8924C18.6785 11.7191 18.6618 12.8104 18.4641 13.7376ZM24.207 8.97436C25.2407 9.03724 26.1499 9.24555 27.1271 9.34423C31.736 9.82459 36.3186 10.5244 40.861 11.4413C46.1516 12.4981 47.9346 12.4331 46.5751 18.5732C46.3669 19.5151 46.1773 20.706 45.9736 21.6862C45.2757 25.1211 44.5445 28.5495 43.7796 31.9698C43.5703 32.9224 43.3444 33.8608 43.1467 34.8199C43.0096 35.4855 42.8013 36.1123 42.6939 36.8021C43.3641 36.9594 44.3736 37.3568 44.5894 36.4471C45.2616 34.1775 45.7961 31.986 46.382 29.7052L47.9966 23.5753C48.5266 21.6108 49.0384 19.6415 49.5326 17.6676C50.12 15.415 50.6999 13.3665 51.0252 11.044C50.8209 10.5454 50.6828 10.2381 50.1543 10.0305C48.2926 9.2986 46.1864 8.83736 44.2324 8.39437C40.5125 7.53825 36.7664 6.80442 32.9986 6.19397L29.9338 5.7001C28.8507 5.52271 26.8473 5.17744 25.7576 5.26251C25.5297 5.28944 25.2165 5.29297 25.1056 5.49124C24.578 6.43248 24.4855 7.90691 24.207 8.97436Z" fill="var(--fill-0, #9EF44B)"/>
<path id="Vector_2" d="M8.1535 0.000189661C9.50006 -0.0209385 9.3325 1.74611 9.59738 2.63113C9.81799 3.38846 10.1194 4.11983 10.4965 4.81272C11.2332 6.16205 12.0224 7.1041 13.565 7.6563C14.0876 7.804 14.8289 7.78428 15.2318 8.18002C15.4974 8.44092 15.5709 8.99282 15.2585 9.23875C14.9486 9.48276 14.4497 9.66278 14.0687 9.81213C11.6413 10.7634 10.291 13.179 9.6295 15.5792C9.38806 16.4555 9.50586 17.6967 8.2363 17.6823C8.05028 17.6801 7.85393 17.4736 7.74859 17.3411C7.56201 16.9569 7.41442 16.3469 7.3057 15.9232C7.00481 14.75 6.67635 13.6825 5.97014 12.6748C5.08261 11.4084 3.85157 10.8194 2.35772 10.5557C1.9039 10.4881 1.42103 10.4335 0.969922 10.3685C0.460072 10.2952 -0.158848 9.8908 0.0371546 9.30022C0.317922 8.45443 1.8631 8.59578 2.56069 8.32953C2.99031 8.16555 3.37117 7.94821 3.77689 7.73845C5.63703 6.73786 6.42558 4.8272 6.97396 2.9002C7.13451 2.33589 7.222 1.69196 7.4005 1.13138C7.56564 0.612704 7.66559 0.265023 8.1535 0.000189661ZM4.50796 9.34449C4.97157 9.64498 5.43266 9.86604 5.87947 10.1717C6.97587 10.9215 7.90955 12.4069 8.37532 13.6526L8.43871 13.712C8.53083 13.6203 8.7995 12.8706 8.89354 12.6383C9.4104 11.3612 10.9108 9.53727 12.1089 8.85103C10.6888 8.11291 9.56132 6.9146 8.91094 5.45227C8.82663 5.26655 8.44743 4.30585 8.38082 4.22587C7.62863 5.88713 7.32501 7.38154 5.6984 8.62265C5.35192 8.88703 4.77128 9.13074 4.50796 9.34449Z" fill="var(--fill-0, #9EF44B)"/>
<path id="Vector_3" d="M11.7186 22.0507C12.42 21.9784 13.1439 22.0821 13.848 22.1077C15.6667 22.1738 17.489 22.4373 19.3014 22.4965C21.0332 22.5531 22.7185 22.8945 24.4434 22.9818C25.6295 23.0418 26.7787 23.2688 27.9576 23.4117C29.7074 23.5132 31.4193 23.9064 33.1525 24.1294C33.4197 24.164 33.8403 24.6017 33.8443 24.8856C33.8518 25.3672 33.5463 25.5749 33.1842 25.7262C32.0159 25.8401 29.775 25.3132 28.5602 25.1609C23.1528 24.4772 17.7472 24.0444 12.3055 23.7502C11.4948 23.7064 11.3189 23.67 11.0212 22.9206C11.1927 22.4706 11.2911 22.2766 11.7186 22.0507Z" fill="var(--fill-0, #9EF44B)"/>
<path id="Vector_4" d="M11.376 28.7936C13.2409 28.6761 28.0494 29.9024 29.1068 30.5161C29.2798 31.0521 29.3816 31.63 28.772 31.9058C27.2567 32.0273 25.5014 31.5019 23.9704 31.3884C23.4771 31.3335 22.9566 31.3516 22.4659 31.2941C19.1223 30.9018 15.7665 30.7319 12.4083 30.5206C12.0686 30.4989 11.1922 30.4858 10.9909 30.1697C10.6774 29.6765 10.9466 29.1153 11.376 28.7936Z" fill="var(--fill-0, #9EF44B)"/>
<path id="Vector_5" d="M11.0253 35.1572C11.7656 35.0609 13.529 35.304 14.341 35.3851C15.5928 35.5188 16.7095 35.4946 17.9609 35.7406C18.6353 35.8738 18.9356 36.0871 18.8191 36.8863C18.7865 37.1102 18.4664 37.2559 18.2739 37.3628C18.1329 37.3951 17.9102 37.4233 17.7691 37.4042C15.578 37.1031 13.3579 37.0875 11.1693 36.792C10.9898 36.7678 10.7758 36.6352 10.6212 36.5424C10.2856 35.8632 10.3906 35.5904 11.0253 35.1572Z" fill="var(--fill-0, #9EF44B)"/>
</g>
</svg>
